<svg xmlns="http://www.w3.org/2000/svg" width="1188" viewBox="0 0 1188 297" height="297" version="1.0"><defs><clipPath id="a"><path d="M 0 124 L 328 124 L 328 297 L 0 297 Z M 0 124"/></clipPath><clipPath id="b"><path d="M -117.488281 54.875 L 384.730469 199.929688 L 326.253906 402.40625 L -175.96875 257.351562 Z M -117.488281 54.875"/></clipPath><clipPath id="c"><path d="M -117.488281 54.875 L 384.730469 199.929688 L 326.253906 402.40625 L -175.96875 257.351562 Z M -117.488281 54.875"/></clipPath><clipPath id="d"><path d="M 860 0 L 1188 0 L 1188 173 L 860 173 Z M 860 0"/></clipPath><clipPath id="e"><path d="M 861.984375 -105.507812 L 1364.207031 39.542969 L 1305.726562 242.019531 L 803.503906 96.964844 Z M 861.984375 -105.507812"/></clipPath><clipPath id="f"><path d="M 1305.480469 242.117188 L 803.257812 97.0625 L 861.734375 -105.410156 L 1363.957031 39.644531 Z M 1305.480469 242.117188"/></clipPath><clipPath id="g"><path d="M 192 104.117188 L 204.75 104.117188 L 204.75 149 L 192 149 Z M 192 104.117188"/></clipPath><clipPath id="h"><path d="M 912 40 L 924.757812 40 L 924.757812 85 L 912 85 Z M 912 40"/></clipPath><clipPath id="i"><path d="M 1049.308594 253.898438 L 1076.308594 253.898438 L 1076.308594 280.898438 L 1049.308594 280.898438 Z M 1049.308594 253.898438"/></clipPath><clipPath id="j"><path d="M 1004.234375 253.96875 L 1036.484375 253.96875 L 1036.484375 280.96875 L 1004.234375 280.96875 Z M 1004.234375 253.96875"/></clipPath><clipPath id="k"><path d="M 964 260 L 971 260 L 971 277.160156 L 964 277.160156 Z M 964 260"/></clipPath><clipPath id="l"><path d="M 964 252.410156 L 971 252.410156 L 971 259 L 964 259 Z M 964 252.410156"/></clipPath><clipPath id="m"><path d="M 972 259 L 990.21875 259 L 990.21875 277.160156 L 972 277.160156 Z M 972 259"/></clipPath></defs><path fill="#FFF" d="M-118.8 -29.7H1306.8V326.7H-118.8z"/><path fill="#FFF" d="M-118.8 -29.7H1306.8V326.7H-118.8z"/><path fill="#FFF" d="M-118.8 -29.7H1306.8V326.7H-118.8z"/><g fill="#323B38"><g><g><path d="M 2.5625 -71.574219 C 2.5625 -65.542969 3.058594 -57.773438 3.058594 -51.410156 C 3.058594 -34.796875 1.652344 -18.84375 1.652344 -1.984375 L 2.230469 9.917969 C 2.230469 16.117188 5.703125 38.679688 11.902344 38.679688 C 15.867188 38.679688 17.6875 33.804688 18.925781 30 C 22.730469 18.761719 25.953125 6.035156 29.753906 -5.207031 L 33.308594 -16.941406 C 35.292969 -24.214844 38.433594 -33.472656 40.414062 -40.582031 C 41.40625 -44.21875 42.070312 -45.789062 43.390625 -49.011719 C 43.804688 -50.085938 43.640625 -51.160156 42.070312 -51.160156 C 39.589844 -51.160156 34.960938 -32.976562 34.050781 -30.167969 C 32.894531 -26.53125 31.820312 -22.8125 30.664062 -19.09375 L 18.761719 19.671875 C 17.523438 23.554688 15.125 33.472656 12.480469 35.292969 C 9.339844 34.300781 7.519531 22.234375 7.191406 19.503906 C 4.378906 -0.164062 7.355469 -26.613281 7.355469 -47.109375 C 7.355469 -50.746094 7.355469 -59.921875 6.941406 -62.898438 C 6.445312 -66.367188 6.941406 -72.484375 3.96875 -72.484375 C 3.304688 -72.484375 3.058594 -71.988281 2.5625 -71.574219 Z M 2.5625 -71.574219" transform="translate(431.731 82.595)"/></g></g></g><g fill="#323B38"><g><g><path d="M 6.859375 0.332031 C 10.746094 0.332031 13.886719 -3.304688 15.867188 -5.371094 C 17.191406 -6.695312 22.148438 -12.230469 22.148438 -13.800781 C 22.148438 -14.546875 21.902344 -14.792969 21.570312 -14.792969 C 20 -14.792969 15.621094 -8.925781 15.289062 -8.511719 C 14.050781 -6.941406 9.753906 -2.5625 7.109375 -2.5625 C 4.875 -2.5625 3.96875 -7.4375 3.96875 -9.917969 C 3.96875 -18.347656 7.273438 -22.066406 3.472656 -22.066406 C 1.816406 -22.066406 0.992188 -18.347656 0.742188 -16.613281 C -0.164062 -12.398438 0 -6.695312 1.984375 -2.976562 C 2.894531 -1.40625 4.628906 0.332031 6.859375 0.332031 Z M 4.214844 -32.480469 C 4.214844 -30.664062 5.289062 -29.835938 6.445312 -29.835938 C 8.101562 -29.835938 9.835938 -31.65625 8.265625 -34.714844 C 7.769531 -35.621094 7.191406 -35.953125 6.613281 -35.953125 C 5.371094 -35.953125 4.214844 -34.382812 4.214844 -32.480469 Z M 4.214844 -32.480469" transform="translate(468.01 82.595)"/></g></g></g><g fill="#323B38"><g><g><path d="M 0 -6.28125 L 0 0.742188 C 0 2.3125 0.164062 2.5625 0.246094 3.800781 C 0.414062 5.867188 -0.332031 8.679688 1.902344 8.679688 C 3.554688 8.679688 4.050781 3.96875 5.289062 0.332031 L 8.925781 -7.605469 C 9.835938 -3.800781 10.414062 0 11.652344 3.636719 C 12.316406 5.621094 13.222656 9.421875 15.289062 10.414062 C 15.539062 10.496094 15.785156 10.578125 15.953125 10.578125 C 16.613281 10.578125 17.027344 10 17.4375 9.503906 C 17.191406 8.429688 16.449219 7.6875 15.621094 5.621094 C 14.382812 2.3125 12.644531 -5.042969 12.316406 -8.511719 C 11.820312 -13.222656 11.734375 -13.140625 13.222656 -15.621094 C 13.636719 -16.28125 14.050781 -16.859375 14.464844 -17.523438 C 16.859375 -21.570312 20.167969 -24.300781 16.613281 -24.300781 C 13.886719 -24.300781 3.71875 -2.976562 3.222656 -2.480469 C 3.222656 -14.214844 4.710938 -30.496094 6.941406 -42.730469 C 7.605469 -46.449219 9.175781 -49.34375 5.949219 -49.34375 C 3.058594 -49.34375 1.324219 -31.574219 1.074219 -29.671875 C 0.414062 -22.316406 0 -14.214844 0 -6.28125 Z M 0 -6.28125" transform="translate(486.853 82.595)"/></g></g></g><g fill="#323B38"><g><g><path d="M 0 -8.347656 C 0 -5.371094 0.246094 -3.96875 3.304688 -3.96875 C 5.703125 -3.96875 8.265625 -11.734375 9.835938 -12.8125 C 9.835938 -9.257812 12.480469 -4.960938 16.613281 -4.960938 C 18.019531 -4.960938 19.589844 -5.453125 21.242188 -6.613281 L 23.71875 -8.59375 C 27.9375 -12.644531 27.441406 -14.710938 26.199219 -14.710938 C 25.703125 -14.710938 25.125 -14.464844 24.710938 -13.886719 C 23.554688 -12.644531 23.308594 -11.902344 21.738281 -10.496094 C 19.917969 -8.679688 18.183594 -7.6875 16.613281 -7.6875 C 14.878906 -7.6875 13.390625 -9.007812 12.726562 -11.984375 C 11.984375 -15.125 13.390625 -18.84375 10.496094 -18.84375 C 9.421875 -18.84375 6.035156 -11.820312 4.378906 -9.257812 L 3.71875 -8.265625 C 3.304688 -7.769531 3.554688 -8.101562 3.304688 -7.851562 C 3.304688 -10.578125 4.464844 -13.71875 5.539062 -15.457031 C 7.933594 -19.589844 9.585938 -20.746094 10.828125 -20.746094 C 12.398438 -20.746094 13.390625 -18.84375 14.546875 -18.84375 C 16.695312 -18.84375 14.546875 -23.554688 10.660156 -23.554688 C 4.875 -23.554688 0 -13.058594 0 -8.347656 Z M 0 -8.347656" transform="translate(505.612 82.595)"/></g></g></g><g fill="#323B38"><g><g><path d="M 0.992188 13.636719 C 0.992188 10.332031 3.386719 6.613281 5.371094 4.214844 C 6.363281 3.058594 8.347656 0.578125 9.671875 -0.164062 C 9.671875 2.148438 9.753906 3.96875 9.175781 5.867188 C 8.429688 8.59375 6.613281 12.5625 4.378906 14.214844 C 3.800781 14.710938 2.808594 15.371094 2.066406 15.371094 C 1.488281 15.371094 0.992188 14.878906 0.992188 13.636719 Z M 0.246094 -13.390625 C 0.246094 -9.007812 6.035156 -7.605469 8.59375 -2.894531 C 7.355469 -0.910156 -1.652344 6.199219 -1.652344 13.636719 C -1.652344 16.613281 0 18.183594 2.3125 18.183594 C 4.792969 18.183594 7.933594 16.28125 10.332031 12.230469 C 15.867188 2.808594 12.480469 -1.984375 12.8125 -3.140625 C 12.976562 -3.800781 18.84375 -8.183594 19.753906 -8.679688 L 25.375 -12.5625 C 27.273438 -13.636719 27.441406 -15.042969 26.117188 -15.042969 C 25.375 -15.042969 24.300781 -14.710938 22.894531 -13.71875 L 15.207031 -8.347656 C 13.96875 -7.273438 12.8125 -6.363281 11.488281 -5.453125 C 7.191406 -11.902344 0.992188 -11.652344 5.371094 -16.613281 C 6.613281 -18.019531 6.363281 -17.605469 8.347656 -18.101562 C 8.84375 -20.167969 8.101562 -20.992188 6.941406 -20.992188 C 4.546875 -20.992188 0.246094 -17.605469 0.246094 -13.390625 Z M 0.246094 -13.390625" transform="translate(529.578 82.595)"/></g></g></g><g fill="#323B38"><g><g><path d="M -0.496094 -6.859375 C -0.496094 -4.378906 -0.246094 10.828125 2.726562 10.828125 C 4.296875 10.828125 4.792969 10.496094 5.371094 8.761719 C 6.363281 5.703125 7.023438 2.230469 8.347656 -1.238281 C 9.339844 -3.71875 12.480469 -11.570312 14.050781 -12.726562 C 14.050781 -10.414062 14.132812 -6.695312 14.464844 -4.875 C 15.042969 -1.488281 16.28125 0 18.019531 0 C 21.902344 0 25.703125 -6.941406 27.355469 -9.917969 C 28.183594 -11.570312 29.257812 -12.480469 28.761719 -14.464844 C 28.429688 -14.546875 28.101562 -14.628906 27.851562 -14.628906 C 27.191406 -14.628906 26.695312 -14.050781 25.703125 -12.316406 C 25.042969 -10.992188 24.382812 -9.835938 23.636719 -8.59375 C 22.234375 -6.613281 20.496094 -3.222656 18.019531 -2.644531 C 16.941406 -4.710938 16.941406 -6.613281 16.941406 -9.753906 C 16.941406 -11.242188 16.941406 -16.28125 15.125 -16.28125 C 12.644531 -16.28125 11.902344 -14.546875 10.660156 -12.316406 C 7.109375 -5.867188 6.363281 -3.386719 4.132812 3.222656 L 3.472656 4.792969 L 3.222656 -4.464844 C 3.222656 -12.726562 4.050781 -22.480469 5.289062 -30.085938 C 5.703125 -32.894531 6.941406 -36.777344 6.363281 -39.339844 C 5.785156 -39.425781 5.371094 -39.507812 5.042969 -39.507812 C 4.214844 -39.507812 3.96875 -38.929688 3.222656 -36.777344 C 1.902344 -31.488281 0.578125 -26.117188 0.332031 -20.578125 C 0.246094 -19.339844 0.0820312 -17.4375 0 -16.199219 Z M -0.496094 -6.859375" transform="translate(553.461 82.595)"/></g></g></g><g fill="#323B38"><g><g><path d="M 37.109375 41.078125 C 33.554688 41.078125 35.125 34.878906 35.871094 32.648438 C 37.6875 27.273438 43.390625 19.339844 47.6875 15.042969 C 48.761719 14.050781 49.425781 12.8125 50.582031 11.902344 C 50.25 17.933594 43.886719 41.078125 37.109375 41.078125 Z M 0 -7.109375 C 0 1.488281 1.816406 8.761719 7.191406 14.214844 C 10.082031 17.191406 12.976562 17.191406 16.859375 17.191406 C 24.382812 17.191406 35.042969 7.769531 39.257812 1.902344 C 44.714844 -5.371094 45.707031 -8.101562 50.25 -15.289062 L 53.804688 -21.160156 C 54.878906 -16.449219 52.894531 -1.816406 52.152344 3.554688 C 51.078125 10.082031 50.5 6.941406 46.285156 12.148438 C 45.707031 13.140625 44.960938 13.71875 44.21875 14.546875 C 40.25 19.671875 32.398438 28.679688 32.398438 35.871094 C 32.398438 39.671875 32.152344 43.722656 37.9375 43.722656 C 39.09375 43.722656 40.996094 42.480469 41.820312 41.820312 C 48.929688 35.953125 52.484375 20 54.136719 11.40625 C 54.550781 10 54.550781 7.933594 55.625 6.941406 L 68.019531 -4.792969 C 69.179688 -5.867188 69.921875 -6.941406 70.996094 -8.015625 C 71.738281 -8.84375 77.773438 -14.546875 74.550781 -14.546875 C 72.898438 -14.546875 70.75 -11.652344 69.757812 -10.414062 L 58.269531 0.828125 C 57.691406 1.238281 57.523438 1.238281 56.945312 1.816406 C 56.203125 2.230469 56.203125 2.5625 55.707031 2.894531 C 55.789062 -0.414062 57.277344 -7.109375 57.277344 -14.546875 C 57.277344 -17.355469 57.691406 -24.960938 54.550781 -24.960938 C 51.820312 -24.960938 48.101562 -16.941406 46.285156 -13.800781 C 42.976562 -8.101562 40.996094 -4.132812 36.945312 0.992188 L 32.480469 5.867188 C 28.761719 9.503906 22.066406 14.382812 15.953125 14.382812 C 13.71875 14.382812 11.570312 13.71875 9.671875 12.066406 C 8.183594 10.992188 7.191406 9.089844 6.445312 7.519531 C 1.816406 -1.902344 4.710938 -18.511719 7.355469 -27.441406 C 9.671875 -35.125 17.4375 -53.886719 27.523438 -53.886719 C 34.714844 -53.886719 37.6875 -41.984375 37.6875 -34.960938 C 37.6875 -27.851562 37.523438 -24.300781 36.035156 -17.4375 C 35.703125 -14.960938 35.292969 -14.050781 35.789062 -11.734375 C 36.449219 -11.570312 36.945312 -11.40625 37.273438 -11.40625 C 38.265625 -11.40625 38.515625 -12.316406 39.257812 -15.539062 C 41.902344 -26.035156 43.144531 -40.582031 38.433594 -50.25 C 35.621094 -55.789062 31.738281 -58.269531 27.441406 -58.269531 C 17.769531 -58.269531 10.992188 -47.191406 7.191406 -39.425781 C 2.894531 -29.917969 0 -17.6875 0 -7.109375 Z M 0 -7.109375" transform="translate(600.07 82.595)"/></g></g></g><g fill="#323B38"><g><g><path d="M 0.0820312 -10.082031 C 0.0820312 -7.273438 -0.332031 -3.222656 3.472656 -3.222656 C 6.035156 -3.222656 9.917969 -9.503906 11.242188 -11.820312 C 11.734375 -12.726562 12.894531 -14.628906 13.554688 -15.042969 C 13.554688 -11.074219 13.886719 -4.214844 19.339844 -4.214844 C 21.820312 -4.214844 24.546875 -5.949219 26.777344 -8.015625 C 27.769531 -8.925781 31.574219 -12.066406 31.574219 -13.472656 C 31.574219 -14.382812 30.910156 -14.546875 30.25 -14.546875 C 28.679688 -14.546875 23.226562 -6.859375 19.589844 -6.859375 C 18.019531 -6.859375 16.777344 -8.265625 16.28125 -12.230469 C 16.035156 -14.382812 17.109375 -19.835938 14.878906 -19.835938 C 13.308594 -19.835938 12.8125 -18.511719 11.734375 -16.941406 L 6.777344 -9.671875 C 5.949219 -8.59375 5.042969 -7.023438 3.71875 -6.613281 C 2.480469 -12.148438 7.519531 -20.828125 7.519531 -21.160156 C 7.519531 -21.902344 7.273438 -21.902344 7.191406 -22.480469 C 6.613281 -22.8125 6.117188 -22.894531 5.703125 -22.894531 C 5.042969 -22.894531 4.464844 -22.5625 3.882812 -21.902344 C 1.816406 -19.257812 0.0820312 -13.636719 0.0820312 -10.082031 Z M 0.0820312 -10.082031" transform="translate(671.637 82.595)"/></g></g></g><g fill="#323B38"><g><g><path d="M 5.703125 5.125 C 6.445312 1.984375 6.363281 2.3125 8.429688 0.414062 L 12.5625 -3.140625 C 11.902344 -0.660156 8.429688 3.636719 5.703125 5.125 Z M 7.769531 -2.148438 C 8.015625 -5.207031 11.734375 -12.316406 13.390625 -12.316406 C 13.886719 -12.316406 14.132812 -11.734375 14.132812 -10.414062 C 14.132812 -6.695312 14.464844 -7.769531 9.585938 -3.636719 C 9.175781 -3.304688 9.175781 -3.304688 8.679688 -2.976562 C 8.265625 -2.5625 8.265625 -2.480469 7.769531 -2.148438 Z M 0 -0.332031 C 0 6.695312 0.910156 14.050781 1.902344 20.992188 C 2.066406 22.480469 2.066406 23.226562 3.304688 23.226562 C 5.125 23.226562 3.96875 18.761719 3.96875 15.703125 C 3.96875 14.214844 4.378906 8.59375 5.621094 7.851562 C 6.199219 7.4375 7.109375 7.109375 7.769531 6.777344 C 14.546875 2.894531 16.035156 -5.703125 16.777344 -6.53125 C 17.851562 -7.851562 25.871094 -12.5625 25.871094 -13.71875 C 25.871094 -14.464844 25.621094 -14.710938 25.125 -14.710938 C 23.804688 -14.710938 20.828125 -12.230469 19.257812 -11.15625 C 18.597656 -10.746094 17.605469 -9.917969 16.941406 -9.753906 C 16.941406 -12.066406 15.785156 -14.878906 13.390625 -14.878906 C 7.6875 -14.878906 5.453125 0.660156 3.554688 2.066406 C 3.554688 -6.199219 4.214844 -13.472656 5.785156 -21.324219 C 6.363281 -24.050781 6.613281 -23.554688 6.117188 -25.457031 C 5.703125 -25.703125 5.289062 -25.785156 4.960938 -25.785156 C 1.40625 -25.785156 0 -3.636719 0 -0.332031 Z M 0 -0.332031" transform="translate(699.57 82.595)"/></g></g></g><g fill="#323B38"><g><g><path d="M -23.226562 -36.863281 C -23.226562 -35.703125 -22.398438 -35.457031 -21.488281 -35.457031 C -20.992188 -35.457031 -20.496094 -35.539062 -20.082031 -35.621094 C -19.339844 -37.191406 -20.167969 -36.863281 -18.101562 -37.6875 C -17.109375 -38.101562 -16.363281 -38.679688 -15.371094 -39.09375 C -10.25 -41.078125 -5.539062 -42.480469 -0.0820312 -43.804688 C 0.742188 -44.050781 2.644531 -44.382812 3.140625 -44.546875 L 2.398438 -36.863281 C 2.3125 -35.789062 2.230469 -33.96875 2.066406 -32.894531 C 1.652344 -30.496094 1.570312 -19.339844 1.570312 -16.199219 L 1.324219 -12.316406 C 1.324219 -6.28125 1.074219 3.554688 1.570312 9.503906 C 1.570312 11.488281 1.652344 14.464844 3.800781 14.464844 C 5.949219 14.464844 4.710938 8.761719 4.710938 6.859375 C 4.546875 3.222656 4.628906 -13.308594 4.875 -15.785156 C 5.042969 -17.523438 4.875 -21.242188 4.875 -23.636719 C 4.875 -24.796875 5.125 -24.796875 5.125 -25.871094 C 5.125 -26.695312 5.042969 -27.6875 5.125 -28.429688 L 6.777344 -45.375 C 8.761719 -45.789062 21.324219 -48.183594 25.871094 -48.183594 C 26.449219 -48.183594 26.859375 -48.183594 27.191406 -48.101562 C 28.183594 -47.855469 27.9375 -48.183594 28.183594 -47.359375 C 31.324219 -47.359375 30.332031 -50.664062 26.449219 -50.664062 C 21.40625 -50.664062 16.53125 -49.839844 11.734375 -48.929688 C 10.496094 -48.761719 8.761719 -48.269531 7.4375 -48.269531 C 7.4375 -50.914062 9.089844 -48.761719 9.089844 -50.914062 C 9.089844 -51.410156 9.007812 -51.738281 9.007812 -51.988281 C 8.925781 -52.8125 9.089844 -52.152344 9.089844 -53.144531 C 9.089844 -54.464844 8.429688 -55.539062 7.519531 -55.539062 C 6.445312 -55.539062 5.125 -54.054688 4.296875 -49.589844 C 3.71875 -46.78125 3.96875 -47.523438 0.496094 -46.613281 C -4.214844 -45.292969 -23.226562 -40.582031 -23.226562 -36.863281 Z M -23.226562 -36.863281" transform="translate(722.71 82.595)"/></g></g></g><g fill="#323B38"><g><g><path d="M 0 -8.347656 C 0 -5.371094 0.246094 -3.96875 3.304688 -3.96875 C 5.703125 -3.96875 8.265625 -11.734375 9.835938 -12.8125 C 9.835938 -9.257812 12.480469 -4.960938 16.613281 -4.960938 C 18.019531 -4.960938 19.589844 -5.453125 21.242188 -6.613281 L 23.71875 -8.59375 C 27.9375 -12.644531 27.441406 -14.710938 26.199219 -14.710938 C 25.703125 -14.710938 25.125 -14.464844 24.710938 -13.886719 C 23.554688 -12.644531 23.308594 -11.902344 21.738281 -10.496094 C 19.917969 -8.679688 18.183594 -7.6875 16.613281 -7.6875 C 14.878906 -7.6875 13.390625 -9.007812 12.726562 -11.984375 C 11.984375 -15.125 13.390625 -18.84375 10.496094 -18.84375 C 9.421875 -18.84375 6.035156 -11.820312 4.378906 -9.257812 L 3.71875 -8.265625 C 3.304688 -7.769531 3.554688 -8.101562 3.304688 -7.851562 C 3.304688 -10.578125 4.464844 -13.71875 5.539062 -15.457031 C 7.933594 -19.589844 9.585938 -20.746094 10.828125 -20.746094 C 12.398438 -20.746094 13.390625 -18.84375 14.546875 -18.84375 C 16.695312 -18.84375 14.546875 -23.554688 10.660156 -23.554688 C 4.875 -23.554688 0 -13.058594 0 -8.347656 Z M 0 -8.347656" transform="translate(732.295 82.595)"/></g></g></g><path stroke-linecap="round" transform="matrix(.7495 0 0 .75 405.682 112.205)" fill="none" d="M 1.002298 0.00253036 L 529.370755 0.00253036" stroke="#000"/><path d="M 406.058594 110.707031 C 406.160156 110.707031 406.25 110.742188 406.320312 110.816406 C 406.394531 110.886719 406.433594 110.976562 406.433594 111.082031 L 406.433594 113.332031 C 406.433594 113.433594 406.394531 113.523438 406.320312 113.59375 C 406.25 113.667969 406.160156 113.707031 406.058594 113.707031 C 405.953125 113.707031 405.867188 113.667969 405.792969 113.59375 C 405.71875 113.523438 405.683594 113.433594 405.683594 113.332031 L 405.683594 111.082031 C 405.683594 110.976562 405.71875 110.886719 405.792969 110.816406 C 405.867188 110.742188 405.953125 110.707031 406.058594 110.707031 Z M 406.058594 110.707031"/><path d="M 802.816406 110.707031 C 802.917969 110.707031 803.007812 110.742188 803.078125 110.816406 C 803.152344 110.886719 803.1875 110.976562 803.1875 111.082031 L 803.1875 113.332031 C 803.1875 113.433594 803.152344 113.523438 803.078125 113.59375 C 803.007812 113.667969 802.917969 113.707031 802.816406 113.707031 C 802.710938 113.707031 802.621094 113.667969 802.550781 113.59375 C 802.476562 113.523438 802.441406 113.433594 802.441406 113.332031 L 802.441406 111.082031 C 802.441406 110.976562 802.476562 110.886719 802.550781 110.816406 C 802.621094 110.742188 802.710938 110.707031 802.816406 110.707031 Z M 802.816406 110.707031"/><g fill="#323B38"><g><g><path d="M 25.34375 -5.40625 C 25.246094 -5.871094 25.144531 -6.433594 24.980469 -6.964844 C 23.15625 -13.203125 20.003906 -18.84375 16.917969 -24.050781 C 16.15625 -25.34375 15.160156 -25.972656 14.03125 -25.972656 C 13.367188 -25.972656 12.671875 -25.773438 11.910156 -25.34375 C 10.980469 -24.78125 10.183594 -24.082031 9.71875 -23.386719 C 8.722656 -21.960938 7.894531 -20.367188 7.230469 -18.976562 C 6.039062 -16.488281 5.109375 -14.398438 4.3125 -12.40625 C 3.085938 -9.320312 2.15625 -6.699219 1.359375 -4.214844 C 0.894531 -2.820312 1.625 -1.691406 2.488281 -1.292969 C 3.550781 -0.863281 4.578125 -1.328125 5.339844 -2.585938 C 5.707031 -3.21875 6.039062 -3.882812 6.367188 -4.542969 C 6.667969 -5.140625 7 -5.804688 7.363281 -6.402344 C 7.597656 -6.832031 8.226562 -7.265625 8.691406 -7.265625 C 10.417969 -7.230469 12.140625 -7.164062 13.832031 -7.097656 C 15.09375 -7.03125 16.386719 -7 17.648438 -6.933594 C 18.808594 -6.898438 19.140625 -6.238281 19.339844 -5.539062 C 19.605469 -4.542969 19.902344 -3.78125 20.269531 -3.152344 C 20.964844 -1.957031 22.226562 -1.460938 23.453125 -1.824219 C 24.714844 -2.222656 25.441406 -3.382812 25.441406 -5.007812 C 25.410156 -5.140625 25.378906 -5.273438 25.34375 -5.40625 Z M 10.648438 -12.871094 L 13.300781 -20.136719 L 16.851562 -12.871094 Z M 10.648438 -12.871094" transform="translate(241.686 167.162)"/></g></g></g><g fill="#323B38"><g><g><path d="M 9.820312 -6.269531 C 9.15625 -6.269531 8.523438 -6.203125 7.894531 -6.304688 C 6.699219 -6.46875 5.972656 -7.265625 6.003906 -8.460938 C 6.039062 -10.613281 6.734375 -12.539062 8.492188 -13.933594 C 9.753906 -14.894531 10.351562 -14.464844 11.246094 -13.167969 C 11.476562 -12.835938 11.976562 -12.507812 12.507812 -12.769531 C 12.804688 -12.9375 13.136719 -12.738281 13.5 -13.601562 C 14.132812 -15.027344 13.167969 -16.820312 11.777344 -17.679688 C 10.316406 -18.609375 8.789062 -18.542969 7.230469 -17.878906 C 3.550781 -16.253906 1.09375 -12.273438 1.226562 -8.027344 C 1.292969 -4.941406 3.316406 -2.453125 6.335938 -1.792969 C 9.519531 -1.09375 12.207031 -2.289062 14.628906 -4.179688 C 14.992188 -4.476562 15.226562 -5.273438 15.09375 -5.738281 C 14.992188 -6.105469 14.230469 -6.433594 13.765625 -6.433594 C 12.441406 -6.46875 11.113281 -6.335938 9.820312 -6.238281 C 9.820312 -6.269531 9.820312 -6.269531 9.820312 -6.269531 Z M 9.820312 -6.269531" transform="translate(277.9 167.162)"/></g></g></g><g fill="#323B38"><g><g><path d="M 11.675781 -15.558594 C 10.914062 -15.65625 10.152344 -15.789062 9.386719 -15.988281 C 8.027344 -16.386719 6.734375 -16.222656 5.539062 -15.492188 C 2.785156 -13.832031 1.027344 -11.445312 0.5625 -8.226562 C 0.164062 -5.472656 1.394531 -3.316406 4.015625 -2.421875 C 5.339844 -1.957031 6.734375 -1.792969 8.09375 -1.492188 C 10.152344 -1.460938 11.84375 -2.121094 13.269531 -3.515625 C 14.992188 -5.175781 15.890625 -7.265625 16.222656 -9.621094 C 16.621094 -12.605469 14.695312 -15.125 11.675781 -15.558594 Z M 10.714844 -9.1875 C 10.085938 -7.363281 9.453125 -6.765625 8.160156 -6.832031 C 5.574219 -6.964844 5.175781 -7.695312 6.46875 -9.984375 C 6.566406 -10.152344 6.667969 -10.316406 6.765625 -10.484375 C 8.027344 -12.339844 8.292969 -12.339844 10.117188 -11.078125 C 10.847656 -10.550781 11.011719 -10.019531 10.714844 -9.1875 Z M 10.714844 -9.1875" transform="translate(294.317 167.162)"/></g></g></g><g fill="#323B38"><g><g><path d="M 16.785156 -24.183594 C 16.753906 -24.8125 16.6875 -25.574219 16.320312 -26.007812 C 15.890625 -26.503906 15.125 -27.003906 14.496094 -26.96875 C 13.964844 -26.9375 13.402344 -26.238281 13.035156 -25.707031 C 12.769531 -25.34375 12.835938 -24.78125 12.804688 -24.28125 C 12.605469 -21.660156 12.441406 -19.039062 12.242188 -16.320312 C 11.910156 -16.421875 11.644531 -16.488281 11.410156 -16.554688 C 6.667969 -18.210938 3.351562 -16.621094 1.792969 -11.84375 C 1.59375 -11.210938 1.425781 -10.582031 1.328125 -9.953125 C 0.664062 -5.804688 2.851562 -2.289062 6.601562 -1.460938 C 8.359375 -1.0625 10.050781 -1.359375 11.675781 -2.058594 C 12.074219 -2.222656 12.574219 -2.355469 12.9375 -2.222656 C 15.226562 -1.425781 16.785156 -2.386719 16.820312 -4.84375 C 16.851562 -11.277344 16.820312 -17.746094 16.785156 -24.183594 Z M 11.476562 -7.761719 C 10.417969 -7.429688 9.320312 -7.132812 8.226562 -6.832031 C 7.332031 -6.867188 6.699219 -7.332031 6.765625 -8.128906 C 6.898438 -9.1875 7.296875 -10.25 7.695312 -11.277344 C 7.761719 -11.511719 8.261719 -11.675781 8.558594 -11.675781 C 10.050781 -11.742188 11.910156 -9.886719 11.808594 -8.394531 C 11.808594 -8.160156 11.644531 -7.828125 11.476562 -7.761719 Z M 11.476562 -7.761719" transform="translate(311.396 167.162)"/></g></g></g><g fill="#323B38"><g><g><path d="M 6.136719 -14.164062 C 6.105469 -15.09375 5.605469 -15.824219 4.609375 -15.957031 C 3.582031 -16.089844 2.820312 -15.492188 2.652344 -14.5625 C 2.089844 -11.34375 1.527344 -8.0625 1.226562 -4.808594 C 1.0625 -3.085938 2.121094 -1.992188 3.316406 -1.890625 C 4.542969 -1.792969 5.539062 -2.820312 5.871094 -4.578125 C 5.972656 -5.242188 6.039062 -5.9375 6.070312 -6.601562 C 6.105469 -7.597656 6.203125 -12.640625 6.136719 -14.164062 Z M 3.683594 -18.808594 C 4.777344 -18.777344 5.773438 -19.769531 5.804688 -21 C 5.804688 -22.125 4.941406 -23.023438 3.816406 -22.988281 C 2.6875 -22.988281 1.757812 -22.09375 1.757812 -20.933594 C 1.757812 -19.769531 2.585938 -18.84375 3.683594 -18.808594 Z M 3.683594 -18.808594" transform="translate(329.47 167.162)"/></g></g></g><g fill="#323B38"><g><g><path d="M 15.292969 -14.332031 C 13.433594 -16.820312 10.550781 -17.214844 8.027344 -15.425781 C 7.296875 -14.894531 6.632812 -14.265625 5.871094 -13.601562 C 5.738281 -13.867188 5.671875 -14.03125 5.605469 -14.230469 C 5.308594 -15.257812 4.84375 -16.222656 3.582031 -16.1875 C 2.253906 -16.121094 1.859375 -15.027344 1.757812 -13.964844 C 1.527344 -10.914062 1.292969 -7.863281 1.226562 -4.808594 C 1.160156 -3.117188 2.289062 -1.957031 3.75 -1.792969 C 5.207031 -1.625 6.46875 -2.554688 6.867188 -4.246094 C 7.398438 -6.601562 8.691406 -8.558594 10.152344 -10.417969 C 10.382812 -10.714844 10.714844 -10.914062 11.179688 -11.34375 C 11.34375 -10.484375 11.445312 -9.917969 11.511719 -9.320312 C 11.742188 -7.761719 11.84375 -6.136719 12.242188 -4.578125 C 12.574219 -3.25 13.699219 -2.585938 14.859375 -2.621094 C 15.921875 -2.6875 16.949219 -3.484375 17.148438 -4.808594 C 17.679688 -8.195312 17.382812 -11.476562 15.292969 -14.332031 Z M 15.292969 -14.332031" transform="translate(336.9 167.162)"/></g></g></g><g fill="#323B38"><g><g><path d="M 15.058594 -14.199219 C 14.992188 -15.691406 14.199219 -16.289062 12.671875 -16.554688 C 12.339844 -16.621094 12.042969 -16.785156 11.777344 -16.949219 C 10.550781 -17.746094 9.222656 -17.945312 7.863281 -17.582031 C 4.710938 -16.6875 2.453125 -14.761719 1.492188 -11.578125 C 0.730469 -9.023438 1.625 -6.367188 3.75 -4.710938 C 5.839844 -3.085938 8.0625 -2.851562 10.351562 -4.277344 C 10.484375 -4.34375 10.648438 -4.378906 10.78125 -4.445312 C 10.746094 -1.957031 8.65625 0.996094 6.433594 1.757812 C 4.34375 2.488281 3.484375 4.113281 4.410156 5.605469 C 5.140625 6.765625 6.269531 7.066406 7.5625 6.933594 C 9.554688 6.699219 11.144531 5.671875 12.472656 4.179688 C 14.230469 2.121094 15.292969 -0.296875 15.359375 -2.917969 C 15.492188 -6.667969 15.257812 -10.449219 15.058594 -14.199219 Z M 7.996094 -8.722656 C 7.429688 -8.328125 6.734375 -8.921875 6.632812 -9.71875 C 6.5 -11.277344 8.988281 -13.300781 10.613281 -12.804688 C 10.417969 -11.011719 9.453125 -9.71875 7.996094 -8.722656 Z M 7.996094 -8.722656" transform="translate(355.538 167.162)"/></g></g></g><g fill="#323B38"><g><g><path d="M 14.296875 -16.054688 C 13.003906 -17.382812 11.410156 -18.246094 9.585938 -18.578125 C 6.933594 -19.074219 4.511719 -18.011719 3.019531 -15.789062 C 1.890625 -14.066406 1.425781 -12.140625 1.261719 -10.117188 C 0.828125 -5.273438 4.179688 -1.226562 10.285156 -1.859375 C 11.144531 -1.925781 12.175781 -2.519531 12.804688 -3.152344 C 13.964844 -4.378906 13.566406 -5.839844 11.976562 -6.335938 C 10.878906 -6.699219 9.6875 -6.734375 8.558594 -6.933594 C 7.960938 -7.066406 7.398438 -7.265625 6.800781 -7.464844 C 8.855469 -7.828125 10.847656 -7.960938 12.640625 -8.589844 C 16.054688 -9.785156 16.820312 -13.433594 14.296875 -16.054688 Z M 11.34375 -12.871094 C 9.851562 -12.703125 8.328125 -12.539062 6.667969 -12.375 C 6.933594 -13.367188 7.363281 -14.132812 8.359375 -14.429688 C 9.488281 -14.761719 10.878906 -14.199219 11.742188 -13.035156 C 11.542969 -12.9375 11.445312 -12.871094 11.34375 -12.871094 Z M 11.34375 -12.871094" transform="translate(381.704 167.162)"/></g></g></g><g fill="#323B38"><g><g><path d="M 15.292969 -14.332031 C 13.433594 -16.820312 10.550781 -17.214844 8.027344 -15.425781 C 7.296875 -14.894531 6.632812 -14.265625 5.871094 -13.601562 C 5.738281 -13.867188 5.671875 -14.03125 5.605469 -14.230469 C 5.308594 -15.257812 4.84375 -16.222656 3.582031 -16.1875 C 2.253906 -16.121094 1.859375 -15.027344 1.757812 -13.964844 C 1.527344 -10.914062 1.292969 -7.863281 1.226562 -4.808594 C 1.160156 -3.117188 2.289062 -1.957031 3.75 -1.792969 C 5.207031 -1.625 6.46875 -2.554688 6.867188 -4.246094 C 7.398438 -6.601562 8.691406 -8.558594 10.152344 -10.417969 C 10.382812 -10.714844 10.714844 -10.914062 11.179688 -11.34375 C 11.34375 -10.484375 11.445312 -9.917969 11.511719 -9.320312 C 11.742188 -7.761719 11.84375 -6.136719 12.242188 -4.578125 C 12.574219 -3.25 13.699219 -2.585938 14.859375 -2.621094 C 15.921875 -2.6875 16.949219 -3.484375 17.148438 -4.808594 C 17.679688 -8.195312 17.382812 -11.476562 15.292969 -14.332031 Z M 15.292969 -14.332031" transform="translate(398.75 167.162)"/></g></g></g><g fill="#323B38"><g><g><path d="M 13.832031 -5.738281 C 13.433594 -6.765625 12.574219 -7.097656 11.542969 -7 C 11.011719 -6.964844 10.484375 -6.832031 9.984375 -6.765625 C 9.15625 -6.667969 8.492188 -7 8.359375 -7.828125 C 8.128906 -9.15625 8.027344 -10.484375 7.863281 -11.84375 C 9.054688 -11.84375 9.984375 -11.777344 10.878906 -11.84375 C 12.109375 -11.941406 13.035156 -12.871094 13.136719 -14 C 13.234375 -15.125 12.472656 -16.1875 11.246094 -16.488281 C 10.484375 -16.6875 9.6875 -16.753906 8.921875 -16.753906 C 8.226562 -16.785156 7.996094 -17.050781 7.996094 -17.746094 C 7.996094 -18.675781 7.960938 -19.636719 7.828125 -20.566406 C 7.664062 -21.925781 7.03125 -22.589844 6.136719 -22.625 C 5.207031 -22.625 4.609375 -21.960938 4.34375 -20.601562 C 4.214844 -19.835938 4.046875 -19.039062 4.015625 -18.277344 C 3.949219 -17.382812 3.550781 -17.015625 2.753906 -16.6875 C 2.121094 -16.421875 1.492188 -15.691406 1.292969 -15.058594 C 0.996094 -14.164062 1.660156 -13.46875 2.488281 -13.136719 C 3.152344 -12.871094 3.285156 -12.472656 3.285156 -11.84375 C 3.285156 -10.484375 3.351562 -9.121094 3.484375 -7.761719 C 3.683594 -5.839844 4.578125 -4.277344 6.136719 -3.085938 C 8.0625 -1.625 11.445312 -1.660156 13.101562 -3.21875 C 13.832031 -3.914062 14.230469 -4.742188 13.832031 -5.738281 Z M 13.832031 -5.738281" transform="translate(417.389 167.162)"/></g></g></g><g fill="#323B38"><g><g><path d="M 17.148438 -8.558594 C 16.851562 -10.183594 16.488281 -11.875 15.789062 -13.402344 C 14.230469 -16.984375 11.511719 -17.78125 8.09375 -15.921875 C 8.027344 -15.890625 7.960938 -15.890625 7.695312 -15.824219 C 7.5625 -16.488281 7.429688 -17.050781 7.296875 -17.648438 C 6.800781 -20.101562 6.335938 -22.589844 5.773438 -25.046875 C 5.472656 -26.339844 4.609375 -27.035156 3.617188 -27.035156 C 2.585938 -27.003906 1.726562 -26.207031 1.492188 -24.878906 C 1.328125 -24.082031 1.160156 -23.222656 1.226562 -22.425781 C 1.460938 -18.113281 1.691406 -13.765625 2.058594 -9.453125 C 2.1875 -7.730469 2.585938 -5.972656 3.019531 -4.277344 C 3.316406 -3.183594 4.179688 -2.519531 5.375 -2.488281 C 6.632812 -2.453125 7.496094 -3.152344 7.828125 -4.277344 C 8.226562 -5.539062 8.492188 -6.832031 8.65625 -8.128906 C 8.921875 -9.886719 9.753906 -11.277344 11.210938 -12.574219 C 11.476562 -11.875 11.777344 -11.378906 11.84375 -10.878906 C 12.042969 -9.6875 12.109375 -8.460938 12.308594 -7.296875 C 12.441406 -6.402344 12.539062 -5.472656 12.871094 -4.644531 C 13.402344 -3.25 14.894531 -3.085938 15.824219 -4.246094 C 16.820312 -5.507812 17.414062 -6.964844 17.148438 -8.558594 Z M 17.148438 -8.558594" transform="translate(432.644 167.162)"/></g></g></g><g fill="#323B38"><g><g><path d="M 16.253906 -5.574219 C 15.558594 -8.589844 14.925781 -11.609375 15.359375 -14.730469 C 15.390625 -14.960938 15.359375 -15.191406 15.359375 -15.425781 C 15.292969 -16.71875 14.496094 -17.613281 13.335938 -17.746094 C 12.140625 -17.878906 11.144531 -17.214844 10.8125 -15.957031 C 10.316406 -14.132812 9.984375 -12.273438 9.488281 -10.484375 C 9.1875 -9.519531 8.789062 -8.558594 8.195312 -7.761719 C 7.496094 -6.765625 6.800781 -6.898438 6.433594 -8.0625 C 6.136719 -9.054688 5.9375 -10.085938 5.839844 -11.144531 C 5.707031 -12.441406 5.707031 -13.765625 5.640625 -15.09375 C 5.574219 -15.988281 5.308594 -16.753906 4.3125 -16.917969 C 3.382812 -17.082031 2.753906 -16.554688 2.453125 -15.757812 C 1.027344 -12.242188 0.695312 -8.65625 2.1875 -5.109375 C 3.515625 -2.023438 6.699219 -0.996094 9.652344 -2.554688 C 10.484375 -2.984375 11.210938 -3.582031 12.042969 -4.148438 C 12.140625 -4.046875 12.175781 -4.015625 12.242188 -3.949219 C 13.070312 -2.519531 14.03125 -2.058594 15.125 -2.488281 C 16.222656 -2.953125 16.621094 -4.082031 16.253906 -5.574219 Z M 16.253906 -5.574219" transform="translate(451.117 167.162)"/></g></g></g><g fill="#323B38"><g><g><path d="M 12.640625 -9.585938 C 11.378906 -10.746094 9.6875 -11.476562 8.160156 -12.40625 C 7.730469 -12.671875 7.265625 -12.835938 6.699219 -13.136719 C 7.894531 -14.53125 9.054688 -14.730469 10.648438 -13.867188 C 11.378906 -13.5 12.175781 -13.167969 12.738281 -13.832031 C 13.167969 -14.332031 13.433594 -15.191406 13.367188 -15.824219 C 13.167969 -17.480469 12.074219 -18.511719 10.515625 -19.007812 C 7.363281 -20.003906 3.382812 -18.34375 1.859375 -15.425781 C 0.828125 -13.433594 0.996094 -11.3125 2.6875 -9.851562 C 3.78125 -8.921875 5.175781 -8.394531 6.46875 -7.761719 C 7.230469 -7.363281 8.0625 -7.164062 8.855469 -6.867188 C 8.824219 -6.734375 8.789062 -6.601562 8.757812 -6.433594 C 7.695312 -6.535156 6.667969 -6.632812 5.640625 -6.765625 C 4.113281 -6.933594 2.917969 -6.433594 2.453125 -5.375 C 1.957031 -4.246094 2.253906 -2.753906 3.484375 -1.992188 C 4.542969 -1.328125 5.804688 -0.796875 7 -0.695312 C 8.328125 -0.628906 9.71875 -0.960938 10.980469 -1.425781 C 14.859375 -2.886719 15.691406 -6.765625 12.640625 -9.585938 Z M 12.640625 -9.585938" transform="translate(468.76 167.162)"/></g></g></g><g fill="#323B38"><g><g><path d="M 6.136719 -14.164062 C 6.105469 -15.09375 5.605469 -15.824219 4.609375 -15.957031 C 3.582031 -16.089844 2.820312 -15.492188 2.652344 -14.5625 C 2.089844 -11.34375 1.527344 -8.0625 1.226562 -4.808594 C 1.0625 -3.085938 2.121094 -1.992188 3.316406 -1.890625 C 4.542969 -1.792969 5.539062 -2.820312 5.871094 -4.578125 C 5.972656 -5.242188 6.039062 -5.9375 6.070312 -6.601562 C 6.105469 -7.597656 6.203125 -12.640625 6.136719 -14.164062 Z M 3.683594 -18.808594 C 4.777344 -18.777344 5.773438 -19.769531 5.804688 -21 C 5.804688 -22.125 4.941406 -23.023438 3.816406 -22.988281 C 2.6875 -22.988281 1.757812 -22.09375 1.757812 -20.933594 C 1.757812 -19.769531 2.585938 -18.84375 3.683594 -18.808594 Z M 3.683594 -18.808594" transform="translate(484.513 167.162)"/></g></g></g><g fill="#323B38"><g><g><path d="M 17.050781 -6.632812 C 16.554688 -8.921875 16.1875 -11.277344 15.691406 -13.601562 C 15.523438 -14.332031 15.324219 -15.292969 14.796875 -15.722656 C 13.203125 -16.949219 11.445312 -18.011719 9.222656 -17.648438 C 5.339844 -16.949219 1.558594 -12.703125 1.226562 -8.558594 C 0.929688 -4.742188 3.980469 -2.089844 7.761719 -2.984375 C 8.757812 -3.25 9.6875 -3.816406 10.613281 -4.277344 C 10.945312 -4.445312 11.210938 -4.710938 11.542969 -4.941406 C 11.710938 -4.710938 11.84375 -4.578125 11.941406 -4.410156 C 13.035156 -2.753906 14.464844 -2.121094 15.789062 -2.6875 C 17.082031 -3.25 17.480469 -4.644531 17.050781 -6.632812 Z M 7.429688 -7.796875 C 7.066406 -7.664062 6.535156 -7.628906 6.203125 -7.796875 C 6.003906 -7.894531 6.003906 -8.589844 6.136719 -8.921875 C 6.867188 -10.980469 8.027344 -12.640625 10.25 -13.566406 C 10.648438 -11.011719 9.453125 -8.589844 7.429688 -7.796875 Z M 7.429688 -7.796875" transform="translate(491.942 167.162)"/></g></g></g><g fill="#323B38"><g><g><path d="M 12.640625 -9.585938 C 11.378906 -10.746094 9.6875 -11.476562 8.160156 -12.40625 C 7.730469 -12.671875 7.265625 -12.835938 6.699219 -13.136719 C 7.894531 -14.53125 9.054688 -14.730469 10.648438 -13.867188 C 11.378906 -13.5 12.175781 -13.167969 12.738281 -13.832031 C 13.167969 -14.332031 13.433594 -15.191406 13.367188 -15.824219 C 13.167969 -17.480469 12.074219 -18.511719 10.515625 -19.007812 C 7.363281 -20.003906 3.382812 -18.34375 1.859375 -15.425781 C 0.828125 -13.433594 0.996094 -11.3125 2.6875 -9.851562 C 3.78125 -8.921875 5.175781 -8.394531 6.46875 -7.761719 C 7.230469 -7.363281 8.0625 -7.164062 8.855469 -6.867188 C 8.824219 -6.734375 8.789062 -6.601562 8.757812 -6.433594 C 7.695312 -6.535156 6.667969 -6.632812 5.640625 -6.765625 C 4.113281 -6.933594 2.917969 -6.433594 2.453125 -5.375 C 1.957031 -4.246094 2.253906 -2.753906 3.484375 -1.992188 C 4.542969 -1.328125 5.804688 -0.796875 7 -0.695312 C 8.328125 -0.628906 9.71875 -0.960938 10.980469 -1.425781 C 14.859375 -2.886719 15.691406 -6.765625 12.640625 -9.585938 Z M 12.640625 -9.585938" transform="translate(510.414 167.162)"/></g></g></g><g fill="#323B38"><g><g><path d="M 13.832031 -5.738281 C 13.433594 -6.765625 12.574219 -7.097656 11.542969 -7 C 11.011719 -6.964844 10.484375 -6.832031 9.984375 -6.765625 C 9.15625 -6.667969 8.492188 -7 8.359375 -7.828125 C 8.128906 -9.15625 8.027344 -10.484375 7.863281 -11.84375 C 9.054688 -11.84375 9.984375 -11.777344 10.878906 -11.84375 C 12.109375 -11.941406 13.035156 -12.871094 13.136719 -14 C 13.234375 -15.125 12.472656 -16.1875 11.246094 -16.488281 C 10.484375 -16.6875 9.6875 -16.753906 8.921875 -16.753906 C 8.226562 -16.785156 7.996094 -17.050781 7.996094 -17.746094 C 7.996094 -18.675781 7.960938 -19.636719 7.828125 -20.566406 C 7.664062 -21.925781 7.03125 -22.589844 6.136719 -22.625 C 5.207031 -22.625 4.609375 -21.960938 4.34375 -20.601562 C 4.214844 -19.835938 4.046875 -19.039062 4.015625 -18.277344 C 3.949219 -17.382812 3.550781 -17.015625 2.753906 -16.6875 C 2.121094 -16.421875 1.492188 -15.691406 1.292969 -15.058594 C 0.996094 -14.164062 1.660156 -13.46875 2.488281 -13.136719 C 3.152344 -12.871094 3.285156 -12.472656 3.285156 -11.84375 C 3.285156 -10.484375 3.351562 -9.121094 3.484375 -7.761719 C 3.683594 -5.839844 4.578125 -4.277344 6.136719 -3.085938 C 8.0625 -1.625 11.445312 -1.660156 13.101562 -3.21875 C 13.832031 -3.914062 14.230469 -4.742188 13.832031 -5.738281 Z M 13.832031 -5.738281" transform="translate(526.167 167.162)"/></g></g></g><g fill="#323B38"><g><g><path d="M 14.296875 -16.054688 C 13.003906 -17.382812 11.410156 -18.246094 9.585938 -18.578125 C 6.933594 -19.074219 4.511719 -18.011719 3.019531 -15.789062 C 1.890625 -14.066406 1.425781 -12.140625 1.261719 -10.117188 C 0.828125 -5.273438 4.179688 -1.226562 10.285156 -1.859375 C 11.144531 -1.925781 12.175781 -2.519531 12.804688 -3.152344 C 13.964844 -4.378906 13.566406 -5.839844 11.976562 -6.335938 C 10.878906 -6.699219 9.6875 -6.734375 8.558594 -6.933594 C 7.960938 -7.066406 7.398438 -7.265625 6.800781 -7.464844 C 8.855469 -7.828125 10.847656 -7.960938 12.640625 -8.589844 C 16.054688 -9.785156 16.820312 -13.433594 14.296875 -16.054688 Z M 11.34375 -12.871094 C 9.851562 -12.703125 8.328125 -12.539062 6.667969 -12.375 C 6.933594 -13.367188 7.363281 -14.132812 8.359375 -14.429688 C 9.488281 -14.761719 10.878906 -14.199219 11.742188 -13.035156 C 11.542969 -12.9375 11.445312 -12.871094 11.34375 -12.871094 Z M 11.34375 -12.871094" transform="translate(550.94 167.162)"/></g></g></g><g fill="#323B38"><g><g><path d="M 15.292969 -14.332031 C 13.433594 -16.820312 10.550781 -17.214844 8.027344 -15.425781 C 7.296875 -14.894531 6.632812 -14.265625 5.871094 -13.601562 C 5.738281 -13.867188 5.671875 -14.03125 5.605469 -14.230469 C 5.308594 -15.257812 4.84375 -16.222656 3.582031 -16.1875 C 2.253906 -16.121094 1.859375 -15.027344 1.757812 -13.964844 C 1.527344 -10.914062 1.292969 -7.863281 1.226562 -4.808594 C 1.160156 -3.117188 2.289062 -1.957031 3.75 -1.792969 C 5.207031 -1.625 6.46875 -2.554688 6.867188 -4.246094 C 7.398438 -6.601562 8.691406 -8.558594 10.152344 -10.417969 C 10.382812 -10.714844 10.714844 -10.914062 11.179688 -11.34375 C 11.34375 -10.484375 11.445312 -9.917969 11.511719 -9.320312 C 11.742188 -7.761719 11.84375 -6.136719 12.242188 -4.578125 C 12.574219 -3.25 13.699219 -2.585938 14.859375 -2.621094 C 15.921875 -2.6875 16.949219 -3.484375 17.148438 -4.808594 C 17.679688 -8.195312 17.382812 -11.476562 15.292969 -14.332031 Z M 15.292969 -14.332031" transform="translate(567.987 167.162)"/></g></g></g><g fill="#323B38"><g><g><path d="M 8.359375 -11.410156 C 8.226562 -12.441406 7.960938 -13.46875 7.597656 -14.464844 C 7.296875 -15.390625 6.566406 -15.921875 5.507812 -15.824219 C 4.476562 -15.691406 3.914062 -14.992188 3.78125 -14.03125 C 3.683594 -13.5 3.714844 -12.96875 3.714844 -12.441406 C 3.75 -10.351562 3.949219 -8.226562 3.75 -6.136719 C 3.417969 -2.753906 2.585938 0.363281 -1.492188 1.195312 C -2.953125 1.460938 -3.683594 2.652344 -3.617188 3.648438 C -3.582031 4.742188 -2.585938 5.804688 -1.195312 6.171875 C -0.796875 6.269531 -0.398438 6.367188 0.03125 6.367188 C 3.484375 6.367188 6.136719 4.84375 7.5625 1.757812 C 9.621094 -4.3125 8.722656 -9.1875 8.359375 -11.410156 Z M 5.339844 -19.503906 C 6.734375 -19.472656 8.160156 -21.03125 8.160156 -22.625 C 8.160156 -23.917969 7.164062 -24.878906 5.839844 -24.847656 C 4.34375 -24.8125 3.050781 -23.417969 3.085938 -21.828125 C 3.085938 -20.5 4.082031 -19.503906 5.339844 -19.503906 Z M 5.339844 -19.503906" transform="translate(586.625 167.162)"/></g></g></g><g fill="#323B38"><g><g><path d="M 11.675781 -15.558594 C 10.914062 -15.65625 10.152344 -15.789062 9.386719 -15.988281 C 8.027344 -16.386719 6.734375 -16.222656 5.539062 -15.492188 C 2.785156 -13.832031 1.027344 -11.445312 0.5625 -8.226562 C 0.164062 -5.472656 1.394531 -3.316406 4.015625 -2.421875 C 5.339844 -1.957031 6.734375 -1.792969 8.09375 -1.492188 C 10.152344 -1.460938 11.84375 -2.121094 13.269531 -3.515625 C 14.992188 -5.175781 15.890625 -7.265625 16.222656 -9.621094 C 16.621094 -12.605469 14.695312 -15.125 11.675781 -15.558594 Z M 10.714844 -9.1875 C 10.085938 -7.363281 9.453125 -6.765625 8.160156 -6.832031 C 5.574219 -6.964844 5.175781 -7.695312 6.46875 -9.984375 C 6.566406 -10.152344 6.667969 -10.316406 6.765625 -10.484375 C 8.027344 -12.339844 8.292969 -12.339844 10.117188 -11.078125 C 10.847656 -10.550781 11.011719 -10.019531 10.714844 -9.1875 Z M 10.714844 -9.1875" transform="translate(596.74 167.162)"/></g></g></g><g fill="#323B38"><g><g><path d="M 15.125 -16.652344 C 13.867188 -17.25 12.574219 -16.753906 11.609375 -15.257812 C 10.550781 -13.601562 9.554688 -11.910156 8.558594 -10.21875 C 8.160156 -9.554688 7.761719 -8.890625 7.265625 -7.996094 C 6.898438 -8.65625 6.632812 -9.089844 6.402344 -9.554688 C 5.671875 -11.144531 5.007812 -12.804688 4.246094 -14.398438 C 3.882812 -15.160156 3.351562 -15.855469 2.320312 -15.589844 C 1.394531 -15.359375 1.160156 -14.53125 1.226562 -13.699219 C 1.292969 -12.339844 1.261719 -10.878906 1.691406 -9.585938 C 2.488281 -7.199219 3.515625 -4.910156 4.578125 -2.621094 C 4.875 -1.925781 4.84375 -1.460938 4.542969 -0.828125 C 3.75 0.929688 2.953125 2.6875 2.253906 4.476562 C 1.992188 5.175781 1.890625 6.003906 1.859375 6.765625 C 1.859375 7.730469 2.320312 8.589844 3.25 8.789062 C 4.015625 8.921875 4.976562 8.824219 5.640625 8.460938 C 6.269531 8.160156 6.699219 7.398438 7.03125 6.734375 C 9.355469 2.289062 11.675781 -2.15625 13.867188 -6.667969 C 14.859375 -8.722656 15.65625 -10.878906 16.386719 -13.070312 C 16.917969 -14.730469 16.355469 -16.089844 15.125 -16.652344 Z M 15.125 -16.652344" transform="translate(613.82 167.162)"/></g></g></g><g fill="#323B38"><g><g><path d="M 6.136719 -14.164062 C 6.105469 -15.09375 5.605469 -15.824219 4.609375 -15.957031 C 3.582031 -16.089844 2.820312 -15.492188 2.652344 -14.5625 C 2.089844 -11.34375 1.527344 -8.0625 1.226562 -4.808594 C 1.0625 -3.085938 2.121094 -1.992188 3.316406 -1.890625 C 4.542969 -1.792969 5.539062 -2.820312 5.871094 -4.578125 C 5.972656 -5.242188 6.039062 -5.9375 6.070312 -6.601562 C 6.105469 -7.597656 6.203125 -12.640625 6.136719 -14.164062 Z M 3.683594 -18.808594 C 4.777344 -18.777344 5.773438 -19.769531 5.804688 -21 C 5.804688 -22.125 4.941406 -23.023438 3.816406 -22.988281 C 2.6875 -22.988281 1.757812 -22.09375 1.757812 -20.933594 C 1.757812 -19.769531 2.585938 -18.84375 3.683594 -18.808594 Z M 3.683594 -18.808594" transform="translate(631.662 167.162)"/></g></g></g><g fill="#323B38"><g><g><path d="M 15.292969 -14.332031 C 13.433594 -16.820312 10.550781 -17.214844 8.027344 -15.425781 C 7.296875 -14.894531 6.632812 -14.265625 5.871094 -13.601562 C 5.738281 -13.867188 5.671875 -14.03125 5.605469 -14.230469 C 5.308594 -15.257812 4.84375 -16.222656 3.582031 -16.1875 C 2.253906 -16.121094 1.859375 -15.027344 1.757812 -13.964844 C 1.527344 -10.914062 1.292969 -7.863281 1.226562 -4.808594 C 1.160156 -3.117188 2.289062 -1.957031 3.75 -1.792969 C 5.207031 -1.625 6.46875 -2.554688 6.867188 -4.246094 C 7.398438 -6.601562 8.691406 -8.558594 10.152344 -10.417969 C 10.382812 -10.714844 10.714844 -10.914062 11.179688 -11.34375 C 11.34375 -10.484375 11.445312 -9.917969 11.511719 -9.320312 C 11.742188 -7.761719 11.84375 -6.136719 12.242188 -4.578125 C 12.574219 -3.25 13.699219 -2.585938 14.859375 -2.621094 C 15.921875 -2.6875 16.949219 -3.484375 17.148438 -4.808594 C 17.679688 -8.195312 17.382812 -11.476562 15.292969 -14.332031 Z M 15.292969 -14.332031" transform="translate(639.09 167.162)"/></g></g></g><g fill="#323B38"><g><g><path d="M 15.058594 -14.199219 C 14.992188 -15.691406 14.199219 -16.289062 12.671875 -16.554688 C 12.339844 -16.621094 12.042969 -16.785156 11.777344 -16.949219 C 10.550781 -17.746094 9.222656 -17.945312 7.863281 -17.582031 C 4.710938 -16.6875 2.453125 -14.761719 1.492188 -11.578125 C 0.730469 -9.023438 1.625 -6.367188 3.75 -4.710938 C 5.839844 -3.085938 8.0625 -2.851562 10.351562 -4.277344 C 10.484375 -4.34375 10.648438 -4.378906 10.78125 -4.445312 C 10.746094 -1.957031 8.65625 0.996094 6.433594 1.757812 C 4.34375 2.488281 3.484375 4.113281 4.410156 5.605469 C 5.140625 6.765625 6.269531 7.066406 7.5625 6.933594 C 9.554688 6.699219 11.144531 5.671875 12.472656 4.179688 C 14.230469 2.121094 15.292969 -0.296875 15.359375 -2.917969 C 15.492188 -6.667969 15.257812 -10.449219 15.058594 -14.199219 Z M 7.996094 -8.722656 C 7.429688 -8.328125 6.734375 -8.921875 6.632812 -9.71875 C 6.5 -11.277344 8.988281 -13.300781 10.613281 -12.804688 C 10.417969 -11.011719 9.453125 -9.71875 7.996094 -8.722656 Z M 7.996094 -8.722656" transform="translate(657.729 167.162)"/></g></g></g><g fill="#323B38"><g><g><path d="M 17.148438 -8.558594 C 16.851562 -10.183594 16.488281 -11.875 15.789062 -13.402344 C 14.230469 -16.984375 11.511719 -17.78125 8.09375 -15.921875 C 8.027344 -15.890625 7.960938 -15.890625 7.695312 -15.824219 C 7.5625 -16.488281 7.429688 -17.050781 7.296875 -17.648438 C 6.800781 -20.101562 6.335938 -22.589844 5.773438 -25.046875 C 5.472656 -26.339844 4.609375 -27.035156 3.617188 -27.035156 C 2.585938 -27.003906 1.726562 -26.207031 1.492188 -24.878906 C 1.328125 -24.082031 1.160156 -23.222656 1.226562 -22.425781 C 1.460938 -18.113281 1.691406 -13.765625 2.058594 -9.453125 C 2.1875 -7.730469 2.585938 -5.972656 3.019531 -4.277344 C 3.316406 -3.183594 4.179688 -2.519531 5.375 -2.488281 C 6.632812 -2.453125 7.496094 -3.152344 7.828125 -4.277344 C 8.226562 -5.539062 8.492188 -6.832031 8.65625 -8.128906 C 8.921875 -9.886719 9.753906 -11.277344 11.210938 -12.574219 C 11.476562 -11.875 11.777344 -11.378906 11.84375 -10.878906 C 12.042969 -9.6875 12.109375 -8.460938 12.308594 -7.296875 C 12.441406 -6.402344 12.539062 -5.472656 12.871094 -4.644531 C 13.402344 -3.25 14.894531 -3.085938 15.824219 -4.246094 C 16.820312 -5.507812 17.414062 -6.964844 17.148438 -8.558594 Z M 17.148438 -8.558594" transform="translate(683.895 167.162)"/></g></g></g><g fill="#323B38"><g><g><path d="M 6.136719 -14.164062 C 6.105469 -15.09375 5.605469 -15.824219 4.609375 -15.957031 C 3.582031 -16.089844 2.820312 -15.492188 2.652344 -14.5625 C 2.089844 -11.34375 1.527344 -8.0625 1.226562 -4.808594 C 1.0625 -3.085938 2.121094 -1.992188 3.316406 -1.890625 C 4.542969 -1.792969 5.539062 -2.820312 5.871094 -4.578125 C 5.972656 -5.242188 6.039062 -5.9375 6.070312 -6.601562 C 6.105469 -7.597656 6.203125 -12.640625 6.136719 -14.164062 Z M 3.683594 -18.808594 C 4.777344 -18.777344 5.773438 -19.769531 5.804688 -21 C 5.804688 -22.125 4.941406 -23.023438 3.816406 -22.988281 C 2.6875 -22.988281 1.757812 -22.09375 1.757812 -20.933594 C 1.757812 -19.769531 2.585938 -18.84375 3.683594 -18.808594 Z M 3.683594 -18.808594" transform="translate(702.368 167.162)"/></g></g></g><g fill="#323B38"><g><g><path d="M 12.640625 -9.585938 C 11.378906 -10.746094 9.6875 -11.476562 8.160156 -12.40625 C 7.730469 -12.671875 7.265625 -12.835938 6.699219 -13.136719 C 7.894531 -14.53125 9.054688 -14.730469 10.648438 -13.867188 C 11.378906 -13.5 12.175781 -13.167969 12.738281 -13.832031 C 13.167969 -14.332031 13.433594 -15.191406 13.367188 -15.824219 C 13.167969 -17.480469 12.074219 -18.511719 10.515625 -19.007812 C 7.363281 -20.003906 3.382812 -18.34375 1.859375 -15.425781 C 0.828125 -13.433594 0.996094 -11.3125 2.6875 -9.851562 C 3.78125 -8.921875 5.175781 -8.394531 6.46875 -7.761719 C 7.230469 -7.363281 8.0625 -7.164062 8.855469 -6.867188 C 8.824219 -6.734375 8.789062 -6.601562 8.757812 -6.433594 C 7.695312 -6.535156 6.667969 -6.632812 5.640625 -6.765625 C 4.113281 -6.933594 2.917969 -6.433594 2.453125 -5.375 C 1.957031 -4.246094 2.253906 -2.753906 3.484375 -1.992188 C 4.542969 -1.328125 5.804688 -0.796875 7 -0.695312 C 8.328125 -0.628906 9.71875 -0.960938 10.980469 -1.425781 C 14.859375 -2.886719 15.691406 -6.765625 12.640625 -9.585938 Z M 12.640625 -9.585938" transform="translate(709.797 167.162)"/></g></g></g><g fill="#323B38"><g><g><path d="M 5.972656 -21.164062 C 5.90625 -22.027344 5.839844 -22.957031 5.441406 -23.683594 C 5.175781 -24.214844 4.410156 -24.8125 3.847656 -24.8125 C 3.285156 -24.8125 2.621094 -24.214844 2.1875 -23.71875 C 1.890625 -23.320312 1.792969 -22.691406 1.726562 -22.125 C 1.425781 -18.84375 1.160156 -8.359375 1.226562 -6.433594 C 1.226562 -5.605469 1.359375 -4.777344 1.558594 -3.980469 C 1.925781 -2.71875 2.820312 -1.992188 3.847656 -1.957031 C 4.875 -1.925781 5.90625 -2.585938 6.238281 -3.847656 C 6.566406 -5.273438 6.832031 -6.734375 6.765625 -8.195312 C 6.601562 -12.507812 6.269531 -16.851562 5.972656 -21.164062 Z M 5.972656 -21.164062" transform="translate(735.068 167.162)"/></g></g></g><g fill="#323B38"><g><g><path d="M 14.296875 -16.054688 C 13.003906 -17.382812 11.410156 -18.246094 9.585938 -18.578125 C 6.933594 -19.074219 4.511719 -18.011719 3.019531 -15.789062 C 1.890625 -14.066406 1.425781 -12.140625 1.261719 -10.117188 C 0.828125 -5.273438 4.179688 -1.226562 10.285156 -1.859375 C 11.144531 -1.925781 12.175781 -2.519531 12.804688 -3.152344 C 13.964844 -4.378906 13.566406 -5.839844 11.976562 -6.335938 C 10.878906 -6.699219 9.6875 -6.734375 8.558594 -6.933594 C 7.960938 -7.066406 7.398438 -7.265625 6.800781 -7.464844 C 8.855469 -7.828125 10.847656 -7.960938 12.640625 -8.589844 C 16.054688 -9.785156 16.820312 -13.433594 14.296875 -16.054688 Z M 11.34375 -12.871094 C 9.851562 -12.703125 8.328125 -12.539062 6.667969 -12.375 C 6.933594 -13.367188 7.363281 -14.132812 8.359375 -14.429688 C 9.488281 -14.761719 10.878906 -14.199219 11.742188 -13.035156 C 11.542969 -12.9375 11.445312 -12.871094 11.34375 -12.871094 Z M 11.34375 -12.871094" transform="translate(743.093 167.162)"/></g></g></g><g fill="#323B38"><g><g><path d="M 17.050781 -6.632812 C 16.554688 -8.921875 16.1875 -11.277344 15.691406 -13.601562 C 15.523438 -14.332031 15.324219 -15.292969 14.796875 -15.722656 C 13.203125 -16.949219 11.445312 -18.011719 9.222656 -17.648438 C 5.339844 -16.949219 1.558594 -12.703125 1.226562 -8.558594 C 0.929688 -4.742188 3.980469 -2.089844 7.761719 -2.984375 C 8.757812 -3.25 9.6875 -3.816406 10.613281 -4.277344 C 10.945312 -4.445312 11.210938 -4.710938 11.542969 -4.941406 C 11.710938 -4.710938 11.84375 -4.578125 11.941406 -4.410156 C 13.035156 -2.753906 14.464844 -2.121094 15.789062 -2.6875 C 17.082031 -3.25 17.480469 -4.644531 17.050781 -6.632812 Z M 7.429688 -7.796875 C 7.066406 -7.664062 6.535156 -7.628906 6.203125 -7.796875 C 6.003906 -7.894531 6.003906 -8.589844 6.136719 -8.921875 C 6.867188 -10.980469 8.027344 -12.640625 10.25 -13.566406 C 10.648438 -11.011719 9.453125 -8.589844 7.429688 -7.796875 Z M 7.429688 -7.796875" transform="translate(760.14 167.162)"/></g></g></g><g fill="#323B38"><g><g><path d="M 14.859375 -13.167969 C 14.464844 -14.597656 13.433594 -15.589844 12.109375 -16.289062 C 9.984375 -17.347656 7.894531 -17.28125 5.804688 -16.15625 C 5.507812 -16.851562 5.40625 -17.582031 4.976562 -18.046875 C 4.511719 -18.542969 3.75 -19.074219 3.152344 -19.007812 C 2.585938 -18.976562 1.992188 -18.246094 1.558594 -17.714844 C 1.328125 -17.449219 1.328125 -16.917969 1.328125 -16.519531 C 1.261719 -12.574219 1.226562 -8.589844 1.226562 -4.644531 C 1.195312 -4.246094 1.292969 -3.816406 1.394531 -3.417969 C 1.757812 -1.824219 3.019531 -0.828125 4.578125 -0.929688 C 6.070312 -1.027344 7.265625 -2.1875 7.429688 -3.78125 C 7.496094 -4.542969 7.265625 -5.339844 7.429688 -6.039062 C 7.796875 -7.628906 8.261719 -9.222656 8.789062 -10.746094 C 9.089844 -11.609375 9.785156 -11.777344 10.648438 -11.378906 C 11.277344 -11.046875 11.941406 -10.648438 12.640625 -10.613281 C 13.269531 -10.550781 14.199219 -10.679688 14.5625 -11.113281 C 14.925781 -11.578125 15.058594 -12.539062 14.859375 -13.167969 Z M 14.859375 -13.167969" transform="translate(778.612 167.162)"/></g></g></g><g fill="#323B38"><g><g><path d="M 15.292969 -14.332031 C 13.433594 -16.820312 10.550781 -17.214844 8.027344 -15.425781 C 7.296875 -14.894531 6.632812 -14.265625 5.871094 -13.601562 C 5.738281 -13.867188 5.671875 -14.03125 5.605469 -14.230469 C 5.308594 -15.257812 4.84375 -16.222656 3.582031 -16.1875 C 2.253906 -16.121094 1.859375 -15.027344 1.757812 -13.964844 C 1.527344 -10.914062 1.292969 -7.863281 1.226562 -4.808594 C 1.160156 -3.117188 2.289062 -1.957031 3.75 -1.792969 C 5.207031 -1.625 6.46875 -2.554688 6.867188 -4.246094 C 7.398438 -6.601562 8.691406 -8.558594 10.152344 -10.417969 C 10.382812 -10.714844 10.714844 -10.914062 11.179688 -11.34375 C 11.34375 -10.484375 11.445312 -9.917969 11.511719 -9.320312 C 11.742188 -7.761719 11.84375 -6.136719 12.242188 -4.578125 C 12.574219 -3.25 13.699219 -2.585938 14.859375 -2.621094 C 15.921875 -2.6875 16.949219 -3.484375 17.148438 -4.808594 C 17.679688 -8.195312 17.382812 -11.476562 15.292969 -14.332031 Z M 15.292969 -14.332031" transform="translate(794.83 167.162)"/></g></g></g><g fill="#323B38"><g><g><path d="M 6.136719 -14.164062 C 6.105469 -15.09375 5.605469 -15.824219 4.609375 -15.957031 C 3.582031 -16.089844 2.820312 -15.492188 2.652344 -14.5625 C 2.089844 -11.34375 1.527344 -8.0625 1.226562 -4.808594 C 1.0625 -3.085938 2.121094 -1.992188 3.316406 -1.890625 C 4.542969 -1.792969 5.539062 -2.820312 5.871094 -4.578125 C 5.972656 -5.242188 6.039062 -5.9375 6.070312 -6.601562 C 6.105469 -7.597656 6.203125 -12.640625 6.136719 -14.164062 Z M 3.683594 -18.808594 C 4.777344 -18.777344 5.773438 -19.769531 5.804688 -21 C 5.804688 -22.125 4.941406 -23.023438 3.816406 -22.988281 C 2.6875 -22.988281 1.757812 -22.09375 1.757812 -20.933594 C 1.757812 -19.769531 2.585938 -18.84375 3.683594 -18.808594 Z M 3.683594 -18.808594" transform="translate(813.467 167.162)"/></g></g></g><g fill="#323B38"><g><g><path d="M 15.292969 -14.332031 C 13.433594 -16.820312 10.550781 -17.214844 8.027344 -15.425781 C 7.296875 -14.894531 6.632812 -14.265625 5.871094 -13.601562 C 5.738281 -13.867188 5.671875 -14.03125 5.605469 -14.230469 C 5.308594 -15.257812 4.84375 -16.222656 3.582031 -16.1875 C 2.253906 -16.121094 1.859375 -15.027344 1.757812 -13.964844 C 1.527344 -10.914062 1.292969 -7.863281 1.226562 -4.808594 C 1.160156 -3.117188 2.289062 -1.957031 3.75 -1.792969 C 5.207031 -1.625 6.46875 -2.554688 6.867188 -4.246094 C 7.398438 -6.601562 8.691406 -8.558594 10.152344 -10.417969 C 10.382812 -10.714844 10.714844 -10.914062 11.179688 -11.34375 C 11.34375 -10.484375 11.445312 -9.917969 11.511719 -9.320312 C 11.742188 -7.761719 11.84375 -6.136719 12.242188 -4.578125 C 12.574219 -3.25 13.699219 -2.585938 14.859375 -2.621094 C 15.921875 -2.6875 16.949219 -3.484375 17.148438 -4.808594 C 17.679688 -8.195312 17.382812 -11.476562 15.292969 -14.332031 Z M 15.292969 -14.332031" transform="translate(820.896 167.162)"/></g></g></g><g fill="#323B38"><g><g><path d="M 15.058594 -14.199219 C 14.992188 -15.691406 14.199219 -16.289062 12.671875 -16.554688 C 12.339844 -16.621094 12.042969 -16.785156 11.777344 -16.949219 C 10.550781 -17.746094 9.222656 -17.945312 7.863281 -17.582031 C 4.710938 -16.6875 2.453125 -14.761719 1.492188 -11.578125 C 0.730469 -9.023438 1.625 -6.367188 3.75 -4.710938 C 5.839844 -3.085938 8.0625 -2.851562 10.351562 -4.277344 C 10.484375 -4.34375 10.648438 -4.378906 10.78125 -4.445312 C 10.746094 -1.957031 8.65625 0.996094 6.433594 1.757812 C 4.34375 2.488281 3.484375 4.113281 4.410156 5.605469 C 5.140625 6.765625 6.269531 7.066406 7.5625 6.933594 C 9.554688 6.699219 11.144531 5.671875 12.472656 4.179688 C 14.230469 2.121094 15.292969 -0.296875 15.359375 -2.917969 C 15.492188 -6.667969 15.257812 -10.449219 15.058594 -14.199219 Z M 7.996094 -8.722656 C 7.429688 -8.328125 6.734375 -8.921875 6.632812 -9.71875 C 6.5 -11.277344 8.988281 -13.300781 10.613281 -12.804688 C 10.417969 -11.011719 9.453125 -9.71875 7.996094 -8.722656 Z M 7.996094 -8.722656" transform="translate(839.534 167.162)"/></g></g></g><g fill="#323B38"><g><g><path d="M 15.457031 -12.738281 C 14.066406 -15.558594 11.710938 -16.652344 8.65625 -15.855469 C 7.597656 -15.558594 6.566406 -15.058594 5.507812 -14.664062 C 5.40625 -14.761719 5.273438 -14.859375 5.175781 -14.992188 C 4.214844 -15.890625 3.21875 -15.691406 2.917969 -14.363281 C 2.519531 -12.703125 2.421875 -10.945312 1.957031 -9.289062 C 0.628906 -4.34375 1.59375 0.695312 1.226562 5.671875 C 1.195312 5.738281 1.226562 5.839844 1.261719 5.90625 C 1.527344 7.132812 2.453125 8.027344 3.648438 8.128906 C 4.84375 8.226562 5.972656 7.53125 6.367188 6.304688 C 6.566406 5.671875 6.632812 4.941406 6.632812 4.246094 C 6.699219 2.519531 6.667969 0.796875 6.667969 -1.0625 C 7.199219 -0.960938 7.53125 -0.894531 7.894531 -0.863281 C 11.84375 -0.199219 15.957031 -2.886719 16.453125 -6.535156 C 16.753906 -8.691406 16.421875 -10.78125 15.457031 -12.738281 Z M 8.425781 -6.566406 C 6.070312 -6.734375 5.839844 -7.164062 7 -9.289062 C 7.664062 -10.515625 8.492188 -11.445312 9.886719 -11.84375 C 10.914062 -12.109375 11.542969 -11.742188 11.742188 -10.78125 C 12.375 -7.664062 11.476562 -6.304688 8.425781 -6.566406 Z M 8.425781 -6.566406" transform="translate(865.7 167.162)"/></g></g></g><g fill="#323B38"><g><g><path d="M 14.859375 -13.167969 C 14.464844 -14.597656 13.433594 -15.589844 12.109375 -16.289062 C 9.984375 -17.347656 7.894531 -17.28125 5.804688 -16.15625 C 5.507812 -16.851562 5.40625 -17.582031 4.976562 -18.046875 C 4.511719 -18.542969 3.75 -19.074219 3.152344 -19.007812 C 2.585938 -18.976562 1.992188 -18.246094 1.558594 -17.714844 C 1.328125 -17.449219 1.328125 -16.917969 1.328125 -16.519531 C 1.261719 -12.574219 1.226562 -8.589844 1.226562 -4.644531 C 1.195312 -4.246094 1.292969 -3.816406 1.394531 -3.417969 C 1.757812 -1.824219 3.019531 -0.828125 4.578125 -0.929688 C 6.070312 -1.027344 7.265625 -2.1875 7.429688 -3.78125 C 7.496094 -4.542969 7.265625 -5.339844 7.429688 -6.039062 C 7.796875 -7.628906 8.261719 -9.222656 8.789062 -10.746094 C 9.089844 -11.609375 9.785156 -11.777344 10.648438 -11.378906 C 11.277344 -11.046875 11.941406 -10.648438 12.640625 -10.613281 C 13.269531 -10.550781 14.199219 -10.679688 14.5625 -11.113281 C 14.925781 -11.578125 15.058594 -12.539062 14.859375 -13.167969 Z M 14.859375 -13.167969" transform="translate(883.543 167.162)"/></g></g></g><g fill="#323B38"><g><g><path d="M 11.675781 -15.558594 C 10.914062 -15.65625 10.152344 -15.789062 9.386719 -15.988281 C 8.027344 -16.386719 6.734375 -16.222656 5.539062 -15.492188 C 2.785156 -13.832031 1.027344 -11.445312 0.5625 -8.226562 C 0.164062 -5.472656 1.394531 -3.316406 4.015625 -2.421875 C 5.339844 -1.957031 6.734375 -1.792969 8.09375 -1.492188 C 10.152344 -1.460938 11.84375 -2.121094 13.269531 -3.515625 C 14.992188 -5.175781 15.890625 -7.265625 16.222656 -9.621094 C 16.621094 -12.605469 14.695312 -15.125 11.675781 -15.558594 Z M 10.714844 -9.1875 C 10.085938 -7.363281 9.453125 -6.765625 8.160156 -6.832031 C 5.574219 -6.964844 5.175781 -7.695312 6.46875 -9.984375 C 6.566406 -10.152344 6.667969 -10.316406 6.765625 -10.484375 C 8.027344 -12.339844 8.292969 -12.339844 10.117188 -11.078125 C 10.847656 -10.550781 11.011719 -10.019531 10.714844 -9.1875 Z M 10.714844 -9.1875" transform="translate(899.76 167.162)"/></g></g></g><g fill="#323B38"><g><g><path d="M 9.820312 -6.269531 C 9.15625 -6.269531 8.523438 -6.203125 7.894531 -6.304688 C 6.699219 -6.46875 5.972656 -7.265625 6.003906 -8.460938 C 6.039062 -10.613281 6.734375 -12.539062 8.492188 -13.933594 C 9.753906 -14.894531 10.351562 -14.464844 11.246094 -13.167969 C 11.476562 -12.835938 11.976562 -12.507812 12.507812 -12.769531 C 12.804688 -12.9375 13.136719 -12.738281 13.5 -13.601562 C 14.132812 -15.027344 13.167969 -16.820312 11.777344 -17.679688 C 10.316406 -18.609375 8.789062 -18.542969 7.230469 -17.878906 C 3.550781 -16.253906 1.09375 -12.273438 1.226562 -8.027344 C 1.292969 -4.941406 3.316406 -2.453125 6.335938 -1.792969 C 9.519531 -1.09375 12.207031 -2.289062 14.628906 -4.179688 C 14.992188 -4.476562 15.226562 -5.273438 15.09375 -5.738281 C 14.992188 -6.105469 14.230469 -6.433594 13.765625 -6.433594 C 12.441406 -6.46875 11.113281 -6.335938 9.820312 -6.238281 C 9.820312 -6.269531 9.820312 -6.269531 9.820312 -6.269531 Z M 9.820312 -6.269531" transform="translate(916.84 167.162)"/></g></g></g><g fill="#323B38"><g><g><path d="M 14.296875 -16.054688 C 13.003906 -17.382812 11.410156 -18.246094 9.585938 -18.578125 C 6.933594 -19.074219 4.511719 -18.011719 3.019531 -15.789062 C 1.890625 -14.066406 1.425781 -12.140625 1.261719 -10.117188 C 0.828125 -5.273438 4.179688 -1.226562 10.285156 -1.859375 C 11.144531 -1.925781 12.175781 -2.519531 12.804688 -3.152344 C 13.964844 -4.378906 13.566406 -5.839844 11.976562 -6.335938 C 10.878906 -6.699219 9.6875 -6.734375 8.558594 -6.933594 C 7.960938 -7.066406 7.398438 -7.265625 6.800781 -7.464844 C 8.855469 -7.828125 10.847656 -7.960938 12.640625 -8.589844 C 16.054688 -9.785156 16.820312 -13.433594 14.296875 -16.054688 Z M 11.34375 -12.871094 C 9.851562 -12.703125 8.328125 -12.539062 6.667969 -12.375 C 6.933594 -13.367188 7.363281 -14.132812 8.359375 -14.429688 C 9.488281 -14.761719 10.878906 -14.199219 11.742188 -13.035156 C 11.542969 -12.9375 11.445312 -12.871094 11.34375 -12.871094 Z M 11.34375 -12.871094" transform="translate(933.256 167.162)"/></g></g></g><g fill="#323B38"><g><g><path d="M 12.640625 -9.585938 C 11.378906 -10.746094 9.6875 -11.476562 8.160156 -12.40625 C 7.730469 -12.671875 7.265625 -12.835938 6.699219 -13.136719 C 7.894531 -14.53125 9.054688 -14.730469 10.648438 -13.867188 C 11.378906 -13.5 12.175781 -13.167969 12.738281 -13.832031 C 13.167969 -14.332031 13.433594 -15.191406 13.367188 -15.824219 C 13.167969 -17.480469 12.074219 -18.511719 10.515625 -19.007812 C 7.363281 -20.003906 3.382812 -18.34375 1.859375 -15.425781 C 0.828125 -13.433594 0.996094 -11.3125 2.6875 -9.851562 C 3.78125 -8.921875 5.175781 -8.394531 6.46875 -7.761719 C 7.230469 -7.363281 8.0625 -7.164062 8.855469 -6.867188 C 8.824219 -6.734375 8.789062 -6.601562 8.757812 -6.433594 C 7.695312 -6.535156 6.667969 -6.632812 5.640625 -6.765625 C 4.113281 -6.933594 2.917969 -6.433594 2.453125 -5.375 C 1.957031 -4.246094 2.253906 -2.753906 3.484375 -1.992188 C 4.542969 -1.328125 5.804688 -0.796875 7 -0.695312 C 8.328125 -0.628906 9.71875 -0.960938 10.980469 -1.425781 C 14.859375 -2.886719 15.691406 -6.765625 12.640625 -9.585938 Z M 12.640625 -9.585938" transform="translate(950.302 167.162)"/></g></g></g><g fill="#323B38"><g><g><path d="M 12.640625 -9.585938 C 11.378906 -10.746094 9.6875 -11.476562 8.160156 -12.40625 C 7.730469 -12.671875 7.265625 -12.835938 6.699219 -13.136719 C 7.894531 -14.53125 9.054688 -14.730469 10.648438 -13.867188 C 11.378906 -13.5 12.175781 -13.167969 12.738281 -13.832031 C 13.167969 -14.332031 13.433594 -15.191406 13.367188 -15.824219 C 13.167969 -17.480469 12.074219 -18.511719 10.515625 -19.007812 C 7.363281 -20.003906 3.382812 -18.34375 1.859375 -15.425781 C 0.828125 -13.433594 0.996094 -11.3125 2.6875 -9.851562 C 3.78125 -8.921875 5.175781 -8.394531 6.46875 -7.761719 C 7.230469 -7.363281 8.0625 -7.164062 8.855469 -6.867188 C 8.824219 -6.734375 8.789062 -6.601562 8.757812 -6.433594 C 7.695312 -6.535156 6.667969 -6.632812 5.640625 -6.765625 C 4.113281 -6.933594 2.917969 -6.433594 2.453125 -5.375 C 1.957031 -4.246094 2.253906 -2.753906 3.484375 -1.992188 C 4.542969 -1.328125 5.804688 -0.796875 7 -0.695312 C 8.328125 -0.628906 9.71875 -0.960938 10.980469 -1.425781 C 14.859375 -2.886719 15.691406 -6.765625 12.640625 -9.585938 Z M 12.640625 -9.585938" transform="translate(966.055 167.162)"/></g></g></g><g fill="#323B38"><g><g><path d="M 3.78125 -7.199219 C 2.453125 -7.230469 1.226562 -5.9375 1.226562 -4.542969 C 1.195312 -3.25 2.289062 -2.15625 3.582031 -2.222656 C 4.910156 -2.253906 5.9375 -3.449219 5.9375 -4.875 C 5.90625 -6.203125 5.007812 -7.199219 3.78125 -7.199219 Z M 3.78125 -7.199219" transform="translate(981.808 167.162)"/></g></g></g><g clip-path="url(#a)"><g clip-path="url(#b)"><g clip-path="url(#c)"><path fill="#323B38" d="M -150.054688 263.546875 C -36.242188 290.542969 299.675781 382.199219 316.621094 378.097656 C 333.5625 374 331.722656 279.019531 308.871094 272.421875 C 286.019531 265.820312 262.628906 300.03125 245.492188 289.21875 C 228.355469 278.40625 253.808594 198.066406 225.917969 185.511719 C 198.03125 172.960938 154.433594 261.550781 132.476562 251.839844 C 110.519531 242.128906 157.609375 143.296875 115.960938 126.773438 C 74.316406 110.246094 33.226562 213.539062 2.382812 219.003906 C -28.457031 224.46875 -33.03125 162.4375 -62.890625 160.558594 C -92.75 158.679688 -175.285156 257.5625 -150.054688 263.546875 Z M -150.054688 263.546875"/></g></g></g><g clip-path="url(#d)"><g clip-path="url(#e)"><g clip-path="url(#f)"><path fill="#323B38" d="M 1338.042969 33.445312 C 1224.230469 6.449219 888.3125 -85.203125 871.367188 -81.105469 C 854.425781 -77.003906 856.265625 17.972656 879.117188 24.574219 C 901.96875 31.171875 925.363281 -3.039062 942.496094 7.773438 C 959.632812 18.589844 934.179688 98.929688 962.070312 111.480469 C 989.957031 124.035156 1033.558594 35.445312 1055.511719 45.15625 C 1077.46875 54.867188 1030.378906 153.695312 1072.027344 170.222656 C 1113.671875 186.75 1154.761719 83.457031 1185.605469 77.988281 C 1216.445312 72.523438 1221.019531 134.558594 1250.878906 136.433594 C 1280.738281 138.3125 1363.273438 39.429688 1338.042969 33.445312 Z M 1338.042969 33.445312"/></g></g></g><path fill="#FFDE59" d="M 162.636719 127.984375 C 162.773438 131.472656 163.113281 153.019531 162.578125 158.644531 C 162.042969 164.269531 158.578125 168.019531 154.308594 165.875 C 150.042969 163.734375 151.109375 150.878906 151.644531 142.039062 C 152.175781 133.199219 151.398438 124.175781 156.980469 122.753906 C 159.148438 122.203125 162.507812 124.757812 162.636719 127.984375 Z M 162.636719 127.984375"/><path fill="#FFDE59" d="M 185.351562 145.839844 C 185.488281 149.328125 185.824219 170.875 185.292969 176.5 C 184.757812 182.125 181.292969 185.875 177.023438 183.730469 C 172.753906 181.589844 173.824219 168.730469 174.355469 159.894531 C 174.890625 151.054688 174.109375 142.03125 179.691406 140.609375 C 181.859375 140.058594 185.222656 142.613281 185.351562 145.839844 Z M 185.351562 145.839844"/><g clip-path="url(#g)"><path fill="#FFDE59" d="M 204.25 109.902344 C 204.390625 113.394531 204.726562 134.941406 204.195312 140.566406 C 203.660156 146.191406 200.191406 149.9375 195.925781 147.796875 C 191.65625 145.652344 192.726562 132.796875 193.257812 123.960938 C 193.792969 115.121094 193.011719 106.097656 198.59375 104.675781 C 200.761719 104.121094 204.121094 106.679688 204.25 109.902344 Z M 204.25 109.902344"/></g><path fill="#FFDE59" d="M 882.644531 63.71875 C 882.78125 67.210938 883.117188 88.757812 882.585938 94.378906 C 882.050781 100.003906 878.585938 103.753906 874.316406 101.613281 C 870.046875 99.46875 871.117188 86.613281 871.652344 77.773438 C 872.183594 68.9375 871.40625 59.914062 876.984375 58.492188 C 879.15625 57.9375 882.515625 60.492188 882.644531 63.71875 Z M 882.644531 63.71875"/><path fill="#FFDE59" d="M 905.355469 81.574219 C 905.496094 85.0625 905.832031 106.609375 905.296875 112.234375 C 904.765625 117.859375 901.296875 121.609375 897.03125 119.46875 C 892.761719 117.324219 893.832031 104.46875 894.363281 95.628906 C 894.898438 86.792969 894.117188 77.765625 899.695312 76.347656 C 901.867188 75.792969 905.226562 78.347656 905.355469 81.574219 Z M 905.355469 81.574219"/><g clip-path="url(#h)"><path fill="#FFDE59" d="M 924.257812 45.640625 C 924.398438 49.128906 924.734375 70.675781 924.199219 76.300781 C 923.667969 81.925781 920.199219 85.675781 915.933594 83.53125 C 911.664062 81.390625 912.730469 68.535156 913.265625 59.695312 C 913.796875 50.859375 913.019531 41.832031 918.601562 40.410156 C 920.769531 39.859375 924.128906 42.414062 924.257812 45.640625 Z M 924.257812 45.640625"/></g><g clip-path="url(#i)"><path fill="#010101" d="M 1062.804688 256.332031 C 1066.40625 256.332031 1066.832031 256.34375 1068.257812 256.40625 C 1069.570312 256.46875 1070.285156 256.6875 1070.765625 256.875 C 1071.394531 257.117188 1071.84375 257.414062 1072.316406 257.886719 C 1072.789062 258.359375 1073.078125 258.808594 1073.328125 259.4375 C 1073.511719 259.910156 1073.730469 260.625 1073.792969 261.945312 C 1073.859375 263.371094 1073.871094 263.796875 1073.871094 267.398438 C 1073.871094 271.003906 1073.859375 271.429688 1073.792969 272.855469 C 1073.734375 274.167969 1073.515625 274.882812 1073.328125 275.363281 C 1073.085938 275.988281 1072.789062 276.4375 1072.316406 276.914062 C 1071.84375 277.386719 1071.394531 277.675781 1070.765625 277.925781 C 1070.292969 278.109375 1069.578125 278.328125 1068.257812 278.390625 C 1066.832031 278.457031 1066.40625 278.46875 1062.804688 278.46875 C 1059.199219 278.46875 1058.773438 278.457031 1057.347656 278.390625 C 1056.035156 278.332031 1055.320312 278.113281 1054.839844 277.925781 C 1054.214844 277.679688 1053.761719 277.386719 1053.289062 276.914062 C 1052.816406 276.4375 1052.527344 275.988281 1052.277344 275.363281 C 1052.09375 274.890625 1051.875 274.171875 1051.8125 272.855469 C 1051.746094 271.429688 1051.734375 271.003906 1051.734375 267.398438 C 1051.734375 263.796875 1051.746094 263.371094 1051.8125 261.945312 C 1051.871094 260.632812 1052.089844 259.917969 1052.277344 259.4375 C 1052.519531 258.808594 1052.816406 258.359375 1053.289062 257.886719 C 1053.761719 257.414062 1054.214844 257.125 1054.839844 256.875 C 1055.3125 256.691406 1056.03125 256.472656 1057.347656 256.40625 C 1058.773438 256.34375 1059.199219 256.332031 1062.804688 256.332031 M 1062.804688 253.898438 C 1059.136719 253.898438 1058.679688 253.917969 1057.234375 253.984375 C 1055.796875 254.046875 1054.816406 254.277344 1053.957031 254.609375 C 1053.070312 254.953125 1052.320312 255.414062 1051.570312 256.164062 C 1050.824219 256.917969 1050.363281 257.667969 1050.019531 258.554688 C 1049.6875 259.414062 1049.457031 260.394531 1049.390625 261.832031 C 1049.328125 263.269531 1049.308594 263.730469 1049.308594 267.394531 C 1049.308594 271.0625 1049.328125 271.515625 1049.390625 272.960938 C 1049.457031 274.398438 1049.6875 275.378906 1050.019531 276.238281 C 1050.363281 277.125 1050.824219 277.875 1051.574219 278.628906 C 1052.324219 279.378906 1053.078125 279.839844 1053.964844 280.183594 C 1054.824219 280.515625 1055.804688 280.746094 1057.242188 280.8125 C 1058.679688 280.875 1059.140625 280.894531 1062.808594 280.894531 C 1066.476562 280.894531 1066.933594 280.875 1068.375 280.8125 C 1069.8125 280.746094 1070.796875 280.515625 1071.652344 280.183594 C 1072.539062 279.839844 1073.292969 279.378906 1074.042969 278.628906 C 1074.792969 277.875 1075.257812 277.125 1075.597656 276.238281 C 1075.929688 275.378906 1076.160156 274.398438 1076.226562 272.960938 C 1076.292969 271.523438 1076.308594 271.0625 1076.308594 267.394531 C 1076.308594 263.726562 1076.292969 263.269531 1076.226562 261.828125 C 1076.160156 260.390625 1075.929688 259.40625 1075.597656 258.550781 C 1075.257812 257.664062 1074.792969 256.910156 1074.042969 256.160156 C 1073.292969 255.410156 1072.539062 254.945312 1071.652344 254.605469 C 1070.796875 254.273438 1069.8125 254.042969 1068.375 253.976562 C 1066.933594 253.917969 1066.472656 253.898438 1062.804688 253.898438"/></g><path fill="#010101" d="M 1062.804688 260.464844 C 1058.976562 260.464844 1055.875 263.566406 1055.875 267.394531 C 1055.875 271.222656 1058.980469 274.328125 1062.808594 274.328125 C 1066.636719 274.328125 1069.742188 271.226562 1069.742188 267.394531 C 1069.738281 263.566406 1066.628906 260.464844 1062.804688 260.464844 M 1062.804688 271.894531 C 1060.320312 271.894531 1058.308594 269.882812 1058.308594 267.398438 C 1058.308594 264.914062 1060.320312 262.902344 1062.804688 262.902344 C 1065.289062 262.902344 1067.300781 264.914062 1067.300781 267.398438 C 1067.304688 269.878906 1065.289062 271.894531 1062.804688 271.894531"/><path fill="#010101" d="M 1071.628906 260.195312 C 1071.628906 261.085938 1070.902344 261.816406 1070.007812 261.816406 C 1069.117188 261.816406 1068.386719 261.085938 1068.386719 260.195312 C 1068.386719 259.300781 1069.117188 258.574219 1070.007812 258.574219 C 1070.902344 258.574219 1071.628906 259.296875 1071.628906 260.195312"/><g clip-path="url(#j)"><path fill="#100F0D" d="M 1032.09375 260.832031 C 1031.949219 260.96875 1031.871094 261.164062 1031.882812 261.367188 C 1031.886719 261.402344 1032.105469 265.003906 1030.527344 269.019531 C 1028.414062 274.382812 1024.253906 277.847656 1018.171875 279.3125 C 1018.105469 279.324219 1012.480469 280.511719 1007.539062 278.121094 C 1009.652344 278.03125 1012.578125 277.429688 1014.632812 275.082031 C 1014.804688 274.886719 1014.847656 274.582031 1014.742188 274.34375 C 1014.636719 274.105469 1014.402344 273.929688 1014.144531 273.929688 C 1014.140625 273.929688 1014.140625 273.929688 1014.140625 273.929688 C 1013.964844 273.929688 1010.988281 273.90625 1009.558594 270.980469 C 1010.136719 271.007812 1010.828125 270.972656 1011.382812 270.710938 C 1011.640625 270.59375 1011.789062 270.324219 1011.757812 270.039062 C 1011.726562 269.753906 1011.519531 269.523438 1011.242188 269.464844 C 1011.082031 269.433594 1007.632812 268.648438 1007.101562 264.839844 C 1007.632812 265.066406 1008.292969 265.238281 1008.949219 265.140625 C 1009.203125 265.101562 1009.410156 264.917969 1009.480469 264.667969 C 1009.550781 264.417969 1009.472656 264.148438 1009.28125 263.980469 C 1009.132812 263.847656 1005.878906 260.90625 1007.371094 257.109375 C 1009.132812 258.976562 1014.160156 263.621094 1020.257812 263.265625 C 1020.453125 263.257812 1020.628906 263.15625 1020.746094 262.996094 C 1020.863281 262.835938 1020.902344 262.632812 1020.855469 262.441406 C 1020.738281 261.976562 1020.679688 261.496094 1020.679688 261.015625 C 1020.679688 257.863281 1023.164062 255.296875 1026.214844 255.296875 C 1027.707031 255.296875 1029.109375 255.902344 1030.15625 257.003906 C 1030.277344 257.128906 1030.445312 257.199219 1030.617188 257.203125 C 1031.222656 257.210938 1032.21875 257.144531 1033.34375 256.71875 C 1033.007812 257.117188 1032.539062 257.585938 1031.882812 258.109375 C 1031.65625 258.289062 1031.570312 258.601562 1031.675781 258.875 C 1031.78125 259.148438 1032.054688 259.320312 1032.335938 259.292969 C 1032.46875 259.285156 1033.109375 259.226562 1033.863281 259.070312 C 1033.433594 259.535156 1032.859375 260.117188 1032.09375 260.832031 Z M 1036.109375 257.117188 C 1035.875 256.957031 1035.570312 256.96875 1035.347656 257.140625 C 1035.121094 257.3125 1034.753906 257.464844 1034.335938 257.585938 C 1035.476562 256.230469 1035.5 255.324219 1035.488281 255.109375 C 1035.472656 254.867188 1035.328125 254.65625 1035.113281 254.550781 C 1034.898438 254.449219 1034.644531 254.472656 1034.449219 254.617188 C 1033.082031 255.628906 1031.714844 255.847656 1030.894531 255.871094 C 1029.621094 254.640625 1027.972656 253.96875 1026.214844 253.96875 C 1022.441406 253.96875 1019.371094 257.128906 1019.371094 261.015625 C 1019.371094 261.328125 1019.390625 261.644531 1019.433594 261.953125 C 1012.988281 261.84375 1007.761719 255.574219 1007.707031 255.511719 C 1007.570312 255.34375 1007.363281 255.253906 1007.148438 255.273438 C 1006.933594 255.292969 1006.746094 255.414062 1006.636719 255.605469 C 1004.820312 258.804688 1005.929688 261.632812 1007.046875 263.324219 C 1006.929688 263.253906 1006.835938 263.191406 1006.773438 263.144531 C 1006.574219 262.996094 1006.3125 262.96875 1006.09375 263.078125 C 1005.871094 263.191406 1005.730469 263.414062 1005.726562 263.664062 C 1005.675781 266.734375 1007.089844 268.53125 1008.460938 269.550781 C 1008.3125 269.570312 1008.171875 269.644531 1008.070312 269.757812 C 1007.910156 269.933594 1007.855469 270.179688 1007.925781 270.402344 C 1008.875 273.570312 1011.183594 274.691406 1012.707031 275.085938 C 1009.625 277.449219 1005.15625 276.679688 1005.109375 276.667969 C 1004.8125 276.617188 1004.515625 276.773438 1004.394531 277.054688 C 1004.273438 277.335938 1004.355469 277.664062 1004.597656 277.851562 C 1007.878906 280.398438 1011.808594 280.964844 1014.648438 280.964844 C 1016.792969 280.964844 1018.3125 280.640625 1018.460938 280.609375 C 1032.773438 277.160156 1033.226562 263.871094 1033.199219 261.605469 C 1035.882812 259.0625 1036.304688 258.089844 1036.371094 257.84375 C 1036.445312 257.570312 1036.339844 257.277344 1036.109375 257.117188"/></g><g clip-path="url(#k)"><path d="M 970.199219 260.257812 L 964.746094 260.257812 C 964.574219 260.257812 964.398438 260.386719 964.398438 260.601562 L 964.398438 276.8125 C 964.398438 276.988281 964.527344 277.160156 964.746094 277.160156 L 970.15625 277.160156 C 970.332031 277.160156 970.503906 277.03125 970.503906 276.8125 L 970.503906 260.558594 C 970.503906 260.386719 970.375 260.257812 970.199219 260.257812 Z M 969.851562 276.46875 L 965.097656 276.46875 L 965.097656 260.90625 L 969.851562 260.90625 Z M 969.851562 276.46875"/></g><g clip-path="url(#l)"><path d="M 967.496094 252.410156 C 965.53125 252.410156 964.09375 253.710938 964.09375 255.53125 C 964.09375 257.351562 965.488281 258.652344 967.410156 258.652344 L 967.496094 258.652344 C 969.457031 258.652344 970.898438 257.351562 970.898438 255.53125 C 970.8125 253.710938 969.457031 252.410156 967.496094 252.410156 Z M 967.496094 258.046875 C 965.882812 258.046875 964.789062 257.003906 964.789062 255.574219 C 964.789062 254.101562 965.882812 253.0625 967.496094 253.0625 C 969.066406 253.0625 970.15625 254.058594 970.199219 255.53125 C 970.199219 257.003906 969.109375 258.046875 967.496094 258.046875 Z M 967.496094 258.046875"/></g><g clip-path="url(#m)"><path d="M 983.503906 259.867188 C 981.148438 259.867188 979.796875 260.863281 978.925781 261.859375 L 978.925781 260.558594 C 978.925781 260.386719 978.792969 260.210938 978.574219 260.210938 L 973.167969 260.210938 C 973.078125 260.210938 972.992188 260.257812 972.949219 260.300781 C 972.90625 260.34375 972.859375 260.429688 972.859375 260.558594 C 972.949219 262.03125 972.859375 276.597656 972.859375 276.769531 C 972.859375 276.855469 972.90625 276.945312 972.949219 276.988281 C 972.992188 277.03125 973.078125 277.074219 973.167969 277.074219 L 978.574219 277.074219 C 978.75 277.074219 978.925781 276.945312 978.925781 276.726562 L 978.925781 267.710938 C 978.925781 267.148438 978.96875 266.757812 979.097656 266.496094 C 979.316406 265.976562 979.972656 264.71875 981.585938 264.71875 C 983.199219 264.71875 983.984375 265.847656 983.984375 268.058594 L 983.984375 276.726562 C 983.984375 276.902344 984.117188 277.074219 984.335938 277.074219 L 989.742188 277.074219 C 989.917969 277.074219 990.09375 276.945312 990.09375 276.726562 L 990.09375 267.496094 C 990.09375 262.726562 987.605469 259.867188 983.503906 259.867188 Z M 989.394531 276.46875 L 984.640625 276.46875 L 984.640625 268.101562 C 984.640625 265.542969 983.546875 264.113281 981.585938 264.113281 C 980.191406 264.113281 979.054688 264.9375 978.488281 266.28125 C 978.359375 266.628906 978.269531 267.0625 978.269531 267.710938 L 978.269531 276.46875 L 973.515625 276.46875 C 973.515625 274.386719 973.558594 263.332031 973.515625 260.90625 L 978.269531 260.90625 L 978.269531 262.769531 C 978.226562 262.855469 978.226562 262.988281 978.3125 263.074219 C 978.359375 263.160156 978.488281 263.246094 978.621094 263.246094 C 978.792969 263.246094 978.925781 263.117188 978.925781 262.988281 C 979.710938 261.816406 980.929688 260.515625 983.503906 260.515625 C 987.257812 260.515625 989.4375 263.074219 989.4375 267.496094 L 989.4375 276.46875 Z M 989.394531 276.46875"/></g><g fill="#323B38"><g><g><path d="M 7.796875 0 L 7.796875 -5.859375 C 7.796875 -6.765625 7.601562 -7.421875 7.21875 -7.828125 C 6.84375 -8.242188 6.253906 -8.453125 5.453125 -8.453125 C 4.367188 -8.453125 3.578125 -8.175781 3.078125 -7.625 C 2.578125 -7.082031 2.328125 -6.203125 2.328125 -4.984375 L 2.328125 0 L 1.515625 0 L 1.515625 -12.921875 L 2.328125 -12.921875 L 2.328125 -8.8125 L 2.296875 -7.65625 L 2.34375 -7.65625 C 2.6875 -8.195312 3.113281 -8.585938 3.625 -8.828125 C 4.144531 -9.078125 4.785156 -9.203125 5.546875 -9.203125 C 7.585938 -9.203125 8.609375 -8.101562 8.609375 -5.90625 L 8.609375 0 Z M 7.796875 0" transform="translate(1086.749 273.675)"/></g></g></g><g fill="#323B38"><g><g><path d="M 2.328125 0 L 1.515625 0 L 1.515625 -9.015625 L 2.328125 -9.015625 Z M 1.390625 -11.53125 C 1.390625 -12.0625 1.566406 -12.328125 1.921875 -12.328125 C 2.085938 -12.328125 2.21875 -12.253906 2.3125 -12.109375 C 2.414062 -11.972656 2.46875 -11.78125 2.46875 -11.53125 C 2.46875 -11.28125 2.414062 -11.082031 2.3125 -10.9375 C 2.21875 -10.789062 2.085938 -10.71875 1.921875 -10.71875 C 1.566406 -10.71875 1.390625 -10.988281 1.390625 -11.53125 Z M 1.390625 -11.53125" transform="translate(1096.772 273.675)"/></g></g></g><g fill="#323B38"><g><g><path d="M 2.328125 0 L 1.515625 0 L 1.515625 -9.015625 L 2.328125 -9.015625 Z M 1.390625 -11.53125 C 1.390625 -12.0625 1.566406 -12.328125 1.921875 -12.328125 C 2.085938 -12.328125 2.21875 -12.253906 2.3125 -12.109375 C 2.414062 -11.972656 2.46875 -11.78125 2.46875 -11.53125 C 2.46875 -11.28125 2.414062 -11.082031 2.3125 -10.9375 C 2.21875 -10.789062 2.085938 -10.71875 1.921875 -10.71875 C 1.566406 -10.71875 1.390625 -10.988281 1.390625 -11.53125 Z M 1.390625 -11.53125" transform="translate(1100.613 273.675)"/></g></g></g><g fill="#323B38"><g><g><path d="M 12.78125 0 L 12.78125 -5.921875 C 12.78125 -6.796875 12.609375 -7.4375 12.265625 -7.84375 C 11.921875 -8.25 11.394531 -8.453125 10.6875 -8.453125 C 9.769531 -8.453125 9.085938 -8.195312 8.640625 -7.6875 C 8.203125 -7.175781 7.984375 -6.375 7.984375 -5.28125 L 7.984375 0 L 7.140625 0 L 7.140625 -6.171875 C 7.140625 -7.691406 6.441406 -8.453125 5.046875 -8.453125 C 4.097656 -8.453125 3.40625 -8.175781 2.96875 -7.625 C 2.539062 -7.070312 2.328125 -6.191406 2.328125 -4.984375 L 2.328125 0 L 1.515625 0 L 1.515625 -9.015625 L 2.1875 -9.015625 L 2.359375 -7.78125 L 2.421875 -7.78125 C 2.671875 -8.226562 3.023438 -8.578125 3.484375 -8.828125 C 3.941406 -9.078125 4.445312 -9.203125 5 -9.203125 C 6.414062 -9.203125 7.328125 -8.664062 7.734375 -7.59375 L 7.765625 -7.59375 C 8.054688 -8.113281 8.453125 -8.507812 8.953125 -8.78125 C 9.453125 -9.0625 10.015625 -9.203125 10.640625 -9.203125 C 11.628906 -9.203125 12.367188 -8.9375 12.859375 -8.40625 C 13.347656 -7.882812 13.59375 -7.050781 13.59375 -5.90625 L 13.59375 0 Z M 12.78125 0" transform="translate(1104.455 273.675)"/></g></g></g><g fill="#323B38"><g><g><path d="M 3.484375 0 L 0 -9.015625 L 0.84375 -9.015625 L 3.171875 -2.890625 C 3.484375 -2.097656 3.71875 -1.410156 3.875 -0.828125 L 3.921875 -0.828125 C 4.148438 -1.578125 4.382812 -2.269531 4.625 -2.90625 L 6.953125 -9.015625 L 7.796875 -9.015625 L 4.3125 0 Z M 3.484375 0" transform="translate(1119.456 273.675)"/></g></g></g><g fill="#323B38"><g><g><path d="M 2.328125 0 L 1.515625 0 L 1.515625 -9.015625 L 2.328125 -9.015625 Z M 1.390625 -11.53125 C 1.390625 -12.0625 1.566406 -12.328125 1.921875 -12.328125 C 2.085938 -12.328125 2.21875 -12.253906 2.3125 -12.109375 C 2.414062 -11.972656 2.46875 -11.78125 2.46875 -11.53125 C 2.46875 -11.28125 2.414062 -11.082031 2.3125 -10.9375 C 2.21875 -10.789062 2.085938 -10.71875 1.921875 -10.71875 C 1.566406 -10.71875 1.390625 -10.988281 1.390625 -11.53125 Z M 1.390625 -11.53125" transform="translate(1127.255 273.675)"/></g></g></g><g fill="#323B38"><g><g><path d="M 2.3125 -3.953125 L 6.921875 -9.015625 L 7.921875 -9.015625 L 4.359375 -5.171875 L 8.21875 0 L 7.234375 0 L 3.8125 -4.5625 L 2.328125 -3.21875 L 2.328125 0 L 1.515625 0 L 1.515625 -12.921875 L 2.328125 -12.921875 L 2.328125 -6.4375 L 2.28125 -3.953125 Z M 2.3125 -3.953125" transform="translate(1131.096 273.675)"/></g></g></g><g fill="#323B38"><g><g><path d="M 6.984375 0 L 6.78125 -1.421875 L 6.71875 -1.421875 C 6.257812 -0.847656 5.789062 -0.4375 5.3125 -0.1875 C 4.832031 0.0507812 4.269531 0.171875 3.625 0.171875 C 2.738281 0.171875 2.046875 -0.0546875 1.546875 -0.515625 C 1.054688 -0.972656 0.8125 -1.601562 0.8125 -2.40625 C 0.8125 -3.28125 1.175781 -3.960938 1.90625 -4.453125 C 2.644531 -4.941406 3.707031 -5.195312 5.09375 -5.21875 L 6.8125 -5.265625 L 6.8125 -5.875 C 6.8125 -6.726562 6.632812 -7.375 6.28125 -7.8125 C 5.9375 -8.25 5.378906 -8.46875 4.609375 -8.46875 C 3.773438 -8.46875 2.910156 -8.234375 2.015625 -7.765625 L 1.703125 -8.484375 C 2.691406 -8.953125 3.671875 -9.1875 4.640625 -9.1875 C 5.628906 -9.1875 6.367188 -8.925781 6.859375 -8.40625 C 7.347656 -7.894531 7.59375 -7.09375 7.59375 -6 L 7.59375 0 Z M 3.671875 -0.578125 C 4.628906 -0.578125 5.382812 -0.851562 5.9375 -1.40625 C 6.5 -1.957031 6.78125 -2.722656 6.78125 -3.703125 L 6.78125 -4.59375 L 5.203125 -4.53125 C 3.929688 -4.46875 3.023438 -4.265625 2.484375 -3.921875 C 1.953125 -3.585938 1.6875 -3.066406 1.6875 -2.359375 C 1.6875 -1.796875 1.859375 -1.359375 2.203125 -1.046875 C 2.546875 -0.734375 3.035156 -0.578125 3.671875 -0.578125 Z M 3.671875 -0.578125" transform="translate(1139.318 273.675)"/></g></g></g><g fill="#323B38"><g><g><path d="M 7.109375 -2.34375 C 7.109375 -1.539062 6.800781 -0.921875 6.1875 -0.484375 C 5.570312 -0.046875 4.695312 0.171875 3.5625 0.171875 C 2.363281 0.171875 1.410156 -0.015625 0.703125 -0.390625 L 0.703125 -1.28125 C 1.609375 -0.820312 2.5625 -0.59375 3.5625 -0.59375 C 4.457031 -0.59375 5.132812 -0.738281 5.59375 -1.03125 C 6.0625 -1.332031 6.296875 -1.726562 6.296875 -2.21875 C 6.296875 -2.675781 6.109375 -3.054688 5.734375 -3.359375 C 5.367188 -3.671875 4.765625 -3.976562 3.921875 -4.28125 C 3.023438 -4.601562 2.394531 -4.882812 2.03125 -5.125 C 1.664062 -5.363281 1.390625 -5.628906 1.203125 -5.921875 C 1.015625 -6.210938 0.921875 -6.570312 0.921875 -7 C 0.921875 -7.675781 1.203125 -8.210938 1.765625 -8.609375 C 2.335938 -9.003906 3.132812 -9.203125 4.15625 -9.203125 C 5.125 -9.203125 6.046875 -9.019531 6.921875 -8.65625 L 6.609375 -7.90625 C 5.722656 -8.269531 4.90625 -8.453125 4.15625 -8.453125 C 3.414062 -8.453125 2.828125 -8.328125 2.390625 -8.078125 C 1.960938 -7.835938 1.75 -7.503906 1.75 -7.078125 C 1.75 -6.597656 1.914062 -6.21875 2.25 -5.9375 C 2.582031 -5.65625 3.238281 -5.34375 4.21875 -5 C 5.03125 -4.707031 5.617188 -4.441406 5.984375 -4.203125 C 6.359375 -3.972656 6.640625 -3.707031 6.828125 -3.40625 C 7.015625 -3.101562 7.109375 -2.75 7.109375 -2.34375 Z M 7.109375 -2.34375" transform="translate(1148.32 273.675)"/></g></g></g><g fill="#323B38"><g><g><path d="M 7.796875 0 L 7.796875 -5.859375 C 7.796875 -6.765625 7.601562 -7.421875 7.21875 -7.828125 C 6.84375 -8.242188 6.253906 -8.453125 5.453125 -8.453125 C 4.367188 -8.453125 3.578125 -8.175781 3.078125 -7.625 C 2.578125 -7.082031 2.328125 -6.203125 2.328125 -4.984375 L 2.328125 0 L 1.515625 0 L 1.515625 -12.921875 L 2.328125 -12.921875 L 2.328125 -8.8125 L 2.296875 -7.65625 L 2.34375 -7.65625 C 2.6875 -8.195312 3.113281 -8.585938 3.625 -8.828125 C 4.144531 -9.078125 4.785156 -9.203125 5.546875 -9.203125 C 7.585938 -9.203125 8.609375 -8.101562 8.609375 -5.90625 L 8.609375 0 Z M 7.796875 0" transform="translate(1156.236 273.675)"/></g></g></g></svg>